<svg xmlns="http://www.w3.org/2000/svg" width="554" height="1535" viewBox="0 0 554 1535">
  <g id="Grupo_1204805" data-name="Grupo 1204805" transform="translate(-522.711 -2477)">
    <text id="html_DOCTYPE_html_html_lang_es_head_meta_charset_UTF-8_title_Pizarra_virtual_colaborativa_title_style_body_margin:_0_background:_1a1a2e_display:_flex_justify-content:_center_align-items:_center_" data-name="html

&lt;!DOCTYPE html&gt;
&lt;html lang=&quot;es&quot;&gt;
&lt;head&gt;
    &lt;meta charset=&quot;UTF-8&quot;&gt;
    &lt;title&gt;Pizarra virtual colaborativa&lt;/title&gt;
    &lt;style&gt;
        body { margin: 0; background: #1a1a2e; display: flex; 
               justify-content: center; align-items: center;" transform="translate(522.711 2477)" font-size="16" font-family="Roboto-Regular, Roboto" letter-spacing="0.003em"><tspan x="0" y="17">html</tspan><tspan x="0" y="41"></tspan><tspan x="0" y="65">&lt;!DOCTYPE html&gt;</tspan><tspan x="0" y="89">&lt;</tspan><tspan y="89" fill="#c90b0b">html lang</tspan><tspan y="89">=&quot;</tspan><tspan y="89" fill="#09a82e">es</tspan><tspan y="89">&quot;&gt;</tspan><tspan x="0" y="113">&lt;</tspan><tspan y="113" fill="#c90b0b">head</tspan><tspan y="113">&gt;</tspan><tspan x="0" y="137" xml:space="preserve">    &lt;</tspan><tspan y="137" fill="#c90b0b">meta charset</tspan><tspan y="137">=&quot;</tspan><tspan y="137" fill="#09a82e">UTF-8</tspan><tspan y="137">&quot;&gt;</tspan><tspan x="0" y="161" xml:space="preserve">    &lt;</tspan><tspan y="161" fill="#c90b0b">title</tspan><tspan y="161">&gt;Pizarra virtual colaborativa&lt;/</tspan><tspan y="161" fill="#c90b0b">title</tspan><tspan y="161">&gt;</tspan><tspan x="0" y="185" xml:space="preserve">    &lt;</tspan><tspan y="185" fill="#c90b0b">style</tspan><tspan y="185">&gt;</tspan><tspan x="0" y="209" xml:space="preserve">       </tspan><tspan y="209" xml:space="preserve" fill="#c90b0b"> body</tspan><tspan y="209" xml:space="preserve"> { </tspan><tspan y="209" fill="#c90b0b">margin</tspan><tspan y="209">: </tspan><tspan y="209" fill="#1597ab">0</tspan><tspan y="209">; </tspan><tspan y="209" fill="#c90b0b">background</tspan><tspan y="209">: #1a1a2e; </tspan><tspan y="209" fill="#c90b0b">display</tspan><tspan y="209">: flex; </tspan><tspan x="0" y="233" xml:space="preserve">               </tspan><tspan y="233" fill="#c90b0b">justify-content</tspan><tspan y="233">: center; </tspan><tspan y="233" fill="#c90b0b">align-items</tspan><tspan y="233">: center; </tspan><tspan x="0" y="257" xml:space="preserve">               </tspan><tspan y="257" fill="#c90b0b">height</tspan><tspan y="257">: </tspan><tspan y="257" fill="#1597ab">100</tspan><tspan y="257">vh; }</tspan><tspan x="0" y="281" xml:space="preserve">        </tspan><tspan y="281" fill="#c90b0b">canvas</tspan><tspan y="281" xml:space="preserve"> { </tspan><tspan y="281" fill="#c90b0b">background</tspan><tspan y="281">: #ffffff; </tspan><tspan y="281" fill="#c90b0b">cursor</tspan><tspan y="281">: crosshair; </tspan><tspan x="0" y="305" xml:space="preserve">               </tspan><tspan y="305" xml:space="preserve" fill="#c90b0b">  border-radius</tspan><tspan y="305">: </tspan><tspan y="305" fill="#1597ab">8</tspan><tspan y="305">px; }</tspan><tspan x="0" y="329" xml:space="preserve">    &lt;/</tspan><tspan y="329" fill="#c90b0b">style</tspan><tspan y="329">&gt;</tspan><tspan x="0" y="353">&lt;/</tspan><tspan y="353" fill="#c90b0b">head</tspan><tspan y="353">&gt;</tspan><tspan x="0" y="377">&lt;</tspan><tspan y="377" fill="#c90b0b">body</tspan><tspan y="377">&gt;</tspan><tspan x="0" y="401" xml:space="preserve">    &lt;</tspan><tspan y="401" fill="#c90b0b">canvas id</tspan><tspan y="401">=&quot;</tspan><tspan y="401" fill="#09a82e">pizarra</tspan><tspan y="401">&quot; </tspan><tspan y="401" fill="#c90b0b">width</tspan><tspan y="401">=&quot;800&quot; </tspan><tspan y="401" fill="#c90b0b">height</tspan><tspan y="401">=&quot;</tspan><tspan y="401" fill="#09a82e">500</tspan><tspan y="401">&quot;&gt;&lt;/</tspan><tspan y="401" fill="#c90b0b">canvas</tspan><tspan y="401">&gt;</tspan><tspan x="0" y="425"></tspan><tspan x="0" y="449" xml:space="preserve">    &lt;</tspan><tspan y="449" fill="#c90b0b">script src</tspan><tspan y="449">=&quot;</tspan><tspan y="449" fill="#09a82e">/socket.io/socket.io.js</tspan><tspan y="449">&quot;&gt;&lt;/</tspan><tspan y="449" fill="#c90b0b">script</tspan><tspan y="449">&gt;</tspan><tspan x="0" y="473" xml:space="preserve">    &lt;</tspan><tspan y="473" fill="#c90b0b">script</tspan><tspan y="473">&gt;</tspan><tspan x="0" y="497" xml:space="preserve">        </tspan><tspan y="497" fill="#e119e8">const</tspan><tspan y="497" xml:space="preserve"> socket = </tspan><tspan y="497" fill="#2569df">io</tspan><tspan y="497">();</tspan><tspan x="0" y="521" xml:space="preserve">      </tspan><tspan y="521" xml:space="preserve" fill="#e119e8">  const</tspan><tspan y="521" xml:space="preserve"> canvas = </tspan><tspan y="521" fill="#d98356">document</tspan><tspan y="521">.</tspan><tspan y="521" fill="#2569df">getElementById</tspan><tspan y="521">(</tspan><tspan y="521" fill="#09a82e">&apos;pizarra&apos;</tspan><tspan y="521">);</tspan><tspan x="0" y="545" xml:space="preserve">     </tspan><tspan y="545" xml:space="preserve" fill="#e119e8">   const</tspan><tspan y="545" xml:space="preserve"> ctx = canvas.</tspan><tspan y="545" fill="#2569df">getContext</tspan><tspan y="545">(</tspan><tspan y="545" fill="#09a82e">&apos;2d&apos;</tspan><tspan y="545">);</tspan><tspan x="0" y="569"></tspan><tspan x="0" y="593" xml:space="preserve">      </tspan><tspan y="593" xml:space="preserve" fill="#e119e8">  let</tspan><tspan y="593" xml:space="preserve"> dibujando =</tspan><tspan y="593" xml:space="preserve" fill="#1597ab"> false</tspan><tspan y="593">;</tspan><tspan x="0" y="617" xml:space="preserve">        </tspan><tspan y="617" fill="#e119e8">let</tspan><tspan y="617" xml:space="preserve"> xAnterior = </tspan><tspan y="617" fill="#1597ab">0</tspan><tspan y="617">;</tspan><tspan x="0" y="641" xml:space="preserve">        </tspan><tspan y="641" fill="#e119e8">let</tspan><tspan y="641" xml:space="preserve"> yAnterior = </tspan><tspan y="641" fill="#1597ab">0</tspan><tspan y="641">;</tspan><tspan x="0" y="665"></tspan><tspan x="0" y="689" xml:space="preserve">        </tspan><tspan y="689" fill="#e119e8">function</tspan><tspan y="689"> </tspan><tspan y="689" fill="#2569df">dibujarLinea</tspan><tspan y="689">(</tspan><tspan y="689" fill="#d98356">x0</tspan><tspan y="689">, </tspan><tspan y="689" fill="#d98356">y0</tspan><tspan y="689">, </tspan><tspan y="689" fill="#d98356">x1</tspan><tspan y="689">, </tspan><tspan y="689" fill="#d98356">y1</tspan><tspan y="689">, </tspan><tspan y="689" fill="#d98356">color</tspan><tspan y="689">, </tspan><tspan y="689" fill="#d98356">emitir</tspan><tspan y="689">) {</tspan><tspan x="0" y="713" xml:space="preserve">            ctx.</tspan><tspan y="713" fill="#2569df">beginPath</tspan><tspan y="713">();</tspan><tspan x="0" y="737" xml:space="preserve">            ctx.</tspan><tspan y="737" fill="#2569df">moveTo</tspan><tspan y="737">(x0, y0);</tspan><tspan x="0" y="761" xml:space="preserve">            ctx.</tspan><tspan y="761" fill="#2569df">lineTo</tspan><tspan y="761">(x1, y1);</tspan><tspan x="0" y="785" xml:space="preserve">            ctx.strokeStyle = color;</tspan><tspan x="0" y="809" xml:space="preserve">            ctx.lineWidth = </tspan><tspan y="809" fill="#1597ab">3</tspan><tspan y="809">;</tspan><tspan x="0" y="833" xml:space="preserve">            ctx.lineCap = </tspan><tspan y="833" fill="#09a82e">&apos;round&apos;</tspan><tspan y="833">;</tspan><tspan x="0" y="857" xml:space="preserve">            ctx.</tspan><tspan y="857" fill="#2569df">stroke</tspan><tspan y="857">();</tspan><tspan x="0" y="881"></tspan><tspan x="0" y="905" xml:space="preserve">           </tspan><tspan y="905" xml:space="preserve" fill="#e119e8"> if</tspan><tspan y="905" xml:space="preserve"> (emitir) {</tspan><tspan x="0" y="929" xml:space="preserve">                socket.</tspan><tspan y="929" fill="#2569df">emit</tspan><tspan y="929">(</tspan><tspan y="929" fill="#09a82e">&apos;dibujar&apos;</tspan><tspan y="929">, { x0, y0, x1, y1, color });</tspan><tspan x="0" y="953" xml:space="preserve">            }</tspan><tspan x="0" y="977" xml:space="preserve">        }</tspan><tspan x="0" y="1001"></tspan><tspan x="0" y="1025" xml:space="preserve">        canvas.</tspan><tspan y="1025" fill="#2569df">addEventListener</tspan><tspan y="1025">(</tspan><tspan y="1025" fill="#09a82e">&apos;mousedown&apos;</tspan><tspan y="1025">, (</tspan><tspan y="1025" fill="#d98356">e</tspan><tspan y="1025">) =&gt; {</tspan><tspan x="0" y="1049" xml:space="preserve">            dibujando = </tspan><tspan y="1049" fill="#1597ab">true</tspan><tspan y="1049">;</tspan><tspan x="0" y="1073" xml:space="preserve">            xAnterior = e.offsetX;</tspan><tspan x="0" y="1097" xml:space="preserve">            yAnterior = e.offsetY;</tspan><tspan x="0" y="1121" xml:space="preserve">        });</tspan><tspan x="0" y="1145"></tspan><tspan x="0" y="1169" xml:space="preserve">        canvas.</tspan><tspan y="1169" fill="#2569df">addEventListener</tspan><tspan y="1169">(</tspan><tspan y="1169" fill="#09a82e">&apos;mousemove&apos;</tspan><tspan y="1169">, (</tspan><tspan y="1169" fill="#d98356">e</tspan><tspan y="1169">) =&gt; {</tspan><tspan x="0" y="1193" xml:space="preserve">           </tspan><tspan y="1193" xml:space="preserve" fill="#e119e8"> if</tspan><tspan y="1193" xml:space="preserve"> (!dibujando) </tspan><tspan y="1193" fill="#e119e8">return</tspan><tspan y="1193">;</tspan><tspan x="0" y="1217" xml:space="preserve">           </tspan><tspan y="1217" xml:space="preserve" fill="#2569df"> dibujarLinea</tspan><tspan y="1217">(xAnterior, yAnterior, e.offsetX, e.offsetY, </tspan><tspan y="1217" fill="#09a82e">&apos;#e63946&apos;</tspan><tspan y="1217">, </tspan><tspan y="1217" fill="#1597ab">true</tspan><tspan y="1217">);</tspan><tspan x="0" y="1241" xml:space="preserve">            xAnterior = e.offsetX;</tspan><tspan x="0" y="1265" xml:space="preserve">            yAnterior = e.offsetY;</tspan><tspan x="0" y="1289" xml:space="preserve">        });</tspan><tspan x="0" y="1313"></tspan><tspan x="0" y="1337" xml:space="preserve">        canvas.</tspan><tspan y="1337" fill="#2569df">addEventListener</tspan><tspan y="1337">(</tspan><tspan y="1337" fill="#09a82e">&apos;mouseup&apos;</tspan><tspan y="1337">, () =&gt; { dibujando = </tspan><tspan y="1337" fill="#1597ab">false</tspan><tspan y="1337">; });</tspan><tspan x="0" y="1361" xml:space="preserve">        canvas.</tspan><tspan y="1361" fill="#2569df">addEventListener</tspan><tspan y="1361">(</tspan><tspan y="1361" fill="#09a82e">&apos;mouseleave&apos;</tspan><tspan y="1361">, () =&gt; { dibujando = </tspan><tspan y="1361" fill="#1597ab">false</tspan><tspan y="1361">; });</tspan><tspan x="0" y="1385"></tspan><tspan x="0" y="1409" xml:space="preserve">        socket.</tspan><tspan y="1409" fill="#2569df">on</tspan><tspan y="1409">(</tspan><tspan y="1409" fill="#09a82e">&apos;dibujar&apos;</tspan><tspan y="1409">, (</tspan><tspan y="1409" fill="#d98356">datos</tspan><tspan y="1409">) =&gt; {</tspan><tspan x="0" y="1433" xml:space="preserve">        </tspan><tspan y="1433" xml:space="preserve" fill="#2569df">    dibujarLinea</tspan><tspan y="1433">(datos.x0, datos.y0, datos.x1, datos.y1, datos.color, </tspan><tspan y="1433" fill="#1597ab">false</tspan><tspan y="1433">);</tspan><tspan x="0" y="1457" xml:space="preserve">        });</tspan><tspan x="0" y="1481" xml:space="preserve">    &lt;/</tspan><tspan y="1481" fill="#c90b0b">script</tspan><tspan y="1481">&gt;</tspan><tspan x="0" y="1505">&lt;/</tspan><tspan y="1505" fill="#c90b0b">body</tspan><tspan y="1505">&gt;</tspan><tspan x="0" y="1529">&lt;/</tspan><tspan y="1529" fill="#c90b0b">html</tspan><tspan y="1529">&gt;</tspan></text>
  </g>
</svg>
