<svg xmlns="http://www.w3.org/2000/svg" width="84" height="84" viewBox="0 0 84 84">
  <g id="Grupo_1204794" data-name="Grupo 1204794" transform="translate(-185.711 -894)">
    <path id="Polígono_27" data-name="Polígono 27" d="M33.056,17.889a10,10,0,0,1,17.889,0l25.82,51.639A10,10,0,0,1,67.82,84H16.18A10,10,0,0,1,7.236,69.528Z" transform="translate(269.711 894) rotate(90)" fill="#69d2cd"/>
    <g id="code-svgrepo-com" transform="translate(194.582 918.288)">
      <path id="Trazado_1261774" data-name="Trazado 1261774" d="M10.73.859,6.01,35.682l4.673.7L15.4,1.562Z" transform="translate(8.174 -0.859)" fill="#1c526e"/>
      <path id="Trazado_1261775" data-name="Trazado 1261775" d="M14.423,21.912l-3.338-3.518,4.923-5.188L11.086,8.018,14.423,4.5l8.26,8.706Z" transform="translate(15.078 4.558)" fill="#1c526e"/>
      <path id="Trazado_1261776" data-name="Trazado 1261776" d="M6.675,13.206,11.6,18.394,8.26,21.912,0,13.206,8.26,4.5,11.6,8.018Z" transform="translate(0 4.558)" fill="#1c526e"/>
    </g>
  </g>
</svg>
