<svg xmlns="http://www.w3.org/2000/svg" width="143.784" height="129.288" viewBox="0 0 143.784 129.288">
  <g id="Grupo_1204792" data-name="Grupo 1204792" transform="translate(13799.482 11976.182)">
    <g id="Grupo_1204674" data-name="Grupo 1204674" transform="translate(-13799.482 -11976.182)">
      <path id="Trazado_1262837" data-name="Trazado 1262837" d="M84.55,49.923H50.2a17.156,17.156,0,0,1-1.756-.028,3.349,3.349,0,0,1-2.811-5.08c1.834-3.366,3.829-6.644,5.748-9.965.316-.547.591-1.119,1.037-1.971H50.1q-15.908,0-31.815,0c-6.531-.007-10.3-3.766-10.3-10.276q-.01-40.209,0-80.417c0-6.371,3.791-10.258,10.162-10.262q61.679-.036,123.358,0c6.5,0,10.254,3.853,10.256,10.367q.008,55.043,0,110.086c0,5.512-3.119,8.765-8.666,8.782q-24.887.077-49.773,0c-5.569-.016-8.744-3.351-8.767-8.945C84.548,51.565,84.55,50.921,84.55,49.923ZM20.987,19.812H84.55V17.333c0-17.957.13-35.914-.075-53.869a8.782,8.782,0,0,1,9.2-9.213c14.246.18,28.5.063,42.744.063h2.3V-54.93H20.987ZM89.218,37.64h58.025V-28.989H89.218Zm58.009-82.7a2.023,2.023,0,0,0,.114-.434q.018-5.856.024-11.712c0-4.546-1.847-6.391-6.391-6.391q-61.105,0-122.211,0c-4.547,0-6.393,1.844-6.393,6.387q0,39.631,0,79.261c0,4.5,1.914,6.43,6.383,6.431q31.821.006,63.643,0c.683,0,1.366-.06,2.027-.09V24.5H81.806q-30.747,0-61.5,0c-3.489,0-3.975-.481-3.975-3.928q0-38.167,0-76.333c0-3.394.537-3.917,4-3.917H139.423c3.437,0,3.972.531,3.975,3.944,0,3.3,0,6.6,0,9.833ZM89.13,42.326c0,3.107,0,6.083,0,9.059,0,4.305.974,5.293,5.226,5.294q16.088,0,32.176,0c5.46,0,10.921.013,16.381-.007,2.5-.01,4.244-1.06,4.339-3.021.181-3.738.053-7.492.053-11.326Zm58.119-76c.521-6.607-.369-7.581-6.684-7.581q-21.65,0-43.3,0c-1.431,0-2.866-.07-4.289.032-1.627.117-3.283.632-3.614,2.409a28.511,28.511,0,0,0-.066,5.138ZM84.44,33.143c-.22-.108-.331-.211-.443-.211Q71.333,32.9,58.67,32.9a1.527,1.527,0,0,0-1.147.476c-2.32,3.873-4.583,7.779-6.957,11.843H84.44Z" transform="translate(-7.974 68.099)" fill="#0f5f6b"/>
      <path id="Trazado_1262838" data-name="Trazado 1262838" d="M57.279,19.983a18.3,18.3,0,0,1-2.489-1c-1.662-.978-3.037-1.257-4.457.556-.816,1.042-2.148.816-3.121-.132q-2.934-2.857-5.79-5.793a2.109,2.109,0,0,1,.147-3.406c1.442-1.153,1.382-2.285.486-3.668a4.106,4.106,0,0,1-.569-1.442c-.216-1.151-.79-1.574-2.01-1.569-2.635.009-3.187-.62-3.2-3.222-.013-2.211-.022-4.421,0-6.632.026-2.284.758-3.12,3.04-3.042a1.882,1.882,0,0,0,2.263-1.751,4.073,4.073,0,0,1,.585-1.436,2.154,2.154,0,0,0-.5-3.322c-1.349-1.094-1.326-2.45-.076-3.7,1.836-1.842,3.67-3.685,5.526-5.506,1.191-1.168,2.512-1.2,3.569.057,1.08,1.282,2.1,1.465,3.459.528a5.584,5.584,0,0,1,1.814-.69c1.065-.263,1.368-.868,1.36-1.96-.02-2.61.591-3.151,3.25-3.175,2.275-.02,4.553-.043,6.827.012,2.14.051,2.854.7,2.739,2.858a2.042,2.042,0,0,0,1.84,2.418,4.392,4.392,0,0,1,1.439.578c1.293.895,2.28.74,3.319-.5,1.112-1.329,2.456-1.313,3.712-.065q2.7,2.679,5.384,5.37c1.218,1.228,1.353,2.622.029,3.737a2.292,2.292,0,0,0-.506,3.465c.374.595.445,1.392.855,1.95A2.506,2.506,0,0,0,87.691-9.46c3.088.272,3.549.71,3.553,3.813,0,2.081.02,4.162-.006,6.242-.026,2.178-.745,2.976-2.925,2.928-1.308-.029-2.092.286-2.339,1.654a4.271,4.271,0,0,1-.667,1.613c-.889,1.3-.684,2.233.5,3.307,1.385,1.255,1.268,2.461-.1,3.863q-2.514,2.586-5.1,5.1c-1.516,1.472-2.518,1.515-3.982.009-.938-.965-1.74-1.412-2.956-.485a4.435,4.435,0,0,1-1.792.736c-1.417.28-1.788,1.079-1.743,2.468.067,2.073-.708,2.746-2.842,2.774-2.211.03-4.421.015-6.632.006-2.727-.01-3.336-.6-3.382-3.273C57.274,20.909,57.279,20.523,57.279,19.983ZM40.9-1.067c3.566.41,3.54.418,4.559,3.739a11.619,11.619,0,0,0,1.311,3.233c1.529,2.2,2.088,4.209-.475,5.89l2.619,2.771c2.649-2.3,2.613-2.226,5.629-.707a29.789,29.789,0,0,0,5.076,1.932,2.586,2.586,0,0,1,2.192,2.573c.023.506.092,1.01.147,1.585h3.635c.058-.669.12-1.237.153-1.806a2.457,2.457,0,0,1,1.968-2.323c2.189-.775,4.333-1.7,6.444-2.669a2.508,2.508,0,0,1,3.194.353c.392.395.828.745,1.269,1.137.514-.489.946-.88,1.356-1.294.437-.442.853-.9,1.259-1.339-2.356-2.732-2.282-2.7-.745-5.714a29.459,29.459,0,0,0,1.844-4.9c.453-1.5,1.229-2.391,2.889-2.311a8.674,8.674,0,0,0,1.31-.132v-3.68c-1.877,0-3.523-.112-4.193-2.325a41.193,41.193,0,0,0-2.568-6.265A2.492,2.492,0,0,1,80.1-16.5c.38-.407.737-.836,1.045-1.186L78.575-20.47c-1.272,1.3-2.4,2.639-4.526,1.512a50.1,50.1,0,0,0-6.437-2.674,2.428,2.428,0,0,1-1.876-2.4c-.018-.567-.1-1.131-.149-1.708H61.766c.69,3.175-1.233,4.062-3.707,4.621a14.89,14.89,0,0,0-3.413,1.4c-3.129,1.606-3.115,1.632-5.74-.6l-2.793,2.672c2.746,1.759,2.178,3.715.7,5.868a9.419,9.419,0,0,0-1.306,3.232c-.552,2.464-1.438,4.4-4.609,3.707Z" transform="translate(-18.981 53.41)" fill="#0f5f6b"/>
      <path id="Trazado_1262839" data-name="Trazado 1262839" d="M197.738,34.126a25.767,25.767,0,1,1-25.75-25.812A25.747,25.747,0,0,1,197.738,34.126ZM174.4,36.464v7.5c1.9,0,3.652.057,5.392-.042a1.576,1.576,0,0,0,1.181-.878c.456-2.12.767-4.272,1.156-6.584Zm7.732-4.759c-.377-2.3-.651-4.349-1.093-6.366a1.745,1.745,0,0,0-1.211-1.1c-1.792-.125-3.6-.052-5.43-.052V31.7Zm-12.489-7.5c-2.033,0-3.9-.035-5.757.034a1.232,1.232,0,0,0-.916.725c-.4,2.192-.693,4.4-1.033,6.686h7.706ZM169.6,36.5h-7.7c.338,2.239.587,4.3,1,6.324a1.718,1.718,0,0,0,1.193,1.089c1.79.123,3.595.051,5.5.051Zm23.859-.017h-6.914c-.3,2.5-.58,4.858-.891,7.466,1.547,0,3.08.034,4.609-.03a1.167,1.167,0,0,0,.839-.632C191.895,41.133,192.618,38.952,193.461,36.486Zm0-4.8c-.841-2.465-1.555-4.658-2.362-6.817a1.378,1.378,0,0,0-1.04-.64c-1.462-.073-2.93-.03-4.424-.03.329,2.656.622,5.021.928,7.487Zm-35.105-7.493c-1.6,0-2.961-.075-4.3.041a1.782,1.782,0,0,0-1.305.859c-.781,2.1-1.421,4.259-2.171,6.586h6.755C157.67,29.2,157.993,26.841,158.357,24.192Zm-7.78,12.235c.729,2.326,1.319,4.36,2.027,6.35.165.464.707,1.08,1.122,1.117,1.506.134,3.031.053,4.639.053-.378-2.707-.713-5.105-1.05-7.521ZM174.96,13.464l-.533.253v5.826h5.152Zm-.627,40.882.637.332,4.566-6.043h-5.2ZM164.4,19.519h5.1V13.787l-.563-.24Zm.655,29.055-.36.5,4.335,5.537.543-.359V48.574ZM187.21,19.1l-4.712-3.7C183.937,19.826,183.937,19.826,187.21,19.1Zm.3,29.678c-3.457-.619-3.705-.42-4.916,3.9ZM161.023,15.7l-4.61,3.76C159.985,19.838,159.985,19.838,161.023,15.7Zm.371,36.985c-1.307-4.388-1.537-4.569-4.874-3.855Z" transform="translate(-61.767 38.362)" fill="#0f5f6b"/>
      <path id="Trazado_1262840" data-name="Trazado 1262840" d="M182.825,126.216c-1.1,0-2.211.051-3.313-.009a5.27,5.27,0,0,1-5.2-5.242,5.176,5.176,0,0,1,5.014-5.212,62.754,62.754,0,0,1,7.207,0,5.161,5.161,0,0,1,5.006,5.214,5.257,5.257,0,0,1-5.2,5.237C185.166,126.269,183.994,126.216,182.825,126.216Zm-4.182-4.923H187.3C185.668,120,180.05,120.032,178.643,121.293Z" transform="translate(-72.703 -3.407)" fill="#0f5f6b"/>
      <path id="Trazado_1262841" data-name="Trazado 1262841" d="M184.179-17.035c-1.431,0-2.864.045-4.292-.015a2.12,2.12,0,0,1-2.288-2.167,2.122,2.122,0,0,1,2.335-2.311c2.861-.04,5.724-.045,8.585.007a2.1,2.1,0,0,1,2.288,2.154c.045,1.522-.93,2.239-2.336,2.315C187.044-16.974,185.61-17.034,184.179-17.035Z" transform="translate(-73.984 49.988)" fill="#0f5f6b"/>
      <path id="Trazado_1262842" data-name="Trazado 1262842" d="M53.35,3.734A17.035,17.035,0,1,1,70.33,20.761,17.07,17.07,0,0,1,53.35,3.734ZM70.337-8.775A12.583,12.583,0,0,0,57.837,3.8a12.616,12.616,0,0,0,12.6,12.485,12.53,12.53,0,0,0-.105-25.06Z" transform="translate(-25.632 46.777)" fill="#0f5f6b"/>
    </g>
  </g>
</svg>
