<svg xmlns="http://www.w3.org/2000/svg" width="179.42" height="137.65" viewBox="0 0 179.42 137.65">
  <g id="Grupo_1204793" data-name="Grupo 1204793" transform="translate(13597.946 11980.574)">
    <g id="Grupo_1204675" data-name="Grupo 1204675" transform="translate(-13597.946 -11980.574)">
      <path id="Trazado_1262843" data-name="Trazado 1262843" d="M265.124,410.823c.849.042,1.329.071,1.809.088,3.427.12,4.462,1.636,3.244,4.88-.766,2.04-1.537,4.091-2.5,6.045a14.765,14.765,0,0,1-12.063,8.619,35.7,35.7,0,0,1-4.361.157q-70.261.011-140.523.006c-10.008,0-14.253-2.9-17.976-12.281-.358-.9-.751-1.788-1.08-2.7-1.113-3.087-.08-4.591,3.216-4.727.55-.023,1.1-.084,1.891-.146V407.82q0-42.351,0-84.7c0-7.688,2.265-10.027,10.01-10.355.311-.013.62-.09,1.251-.185,0-3.546-.011-7.077,0-10.609.023-5.766,3.233-8.992,9.033-8.993q63.83-.015,127.66,0c5.931,0,9.1,3.21,9.117,9.154.01,3.457,0,6.913,0,10.5.97.061,1.675.134,2.381.144,5.87.087,8.87,3.115,8.875,9.053q.021,23.906.005,47.812v41.19ZM113.509,315.658v2.76q0,38.475,0,76.951c0,3.751.621,4.375,4.345,4.375q63.114,0,126.228,0c3.7,0,4.318-.635,4.319-4.4q0-38.475,0-76.951v-2.731Zm140.355,2.885v2.8q0,37.255,0,74.51c0,6.5-2.959,9.474-9.463,9.475q-63.466.01-126.933,0c-6.48,0-9.417-2.986-9.417-9.518q0-37.255,0-74.509v-2.789c-4.816-.72-5.749.043-5.75,4.416q0,42.594,0,85.188v2.8h2.87c18.769,0,37.539.076,56.306-.074,3.217-.026,5.325.809,6.274,3.92.5,1.625,1.594,1.914,3.156,1.9,6.552-.078,13.107-.108,19.658.013,1.959.036,3.214-.428,3.842-2.376.826-2.567,2.56-3.458,5.346-3.44,19.011.116,38.023.061,57.035.061h2.829v-2.842q0-42.594,0-85.188C259.613,318.564,258.572,317.732,253.863,318.543ZM98.326,416.622c1.819,5.993,4.993,8.368,10.791,8.369q71.84.007,143.68,0c.566,0,1.135.017,1.7-.029a9.629,9.629,0,0,0,8.916-8.342H260.5c-19.335,0-38.671.042-58.006-.057-2.264-.012-3.66.566-4.348,2.73s-2.193,2.87-4.455,2.843c-8.412-.1-16.828-.123-25.24.01-2.474.039-4.072-.72-4.8-3.076-.623-2.017-1.923-2.512-4-2.5-19.5.088-38.994.052-58.491.052ZM248.169,309.834a3.948,3.948,0,0,0,.2-.712c.018-2.1.036-4.207.032-6.31-.006-3.516-.564-4.075-4.085-4.075q-38.841,0-77.681,0c-.786,0-1.572.07-2.421.111v10.984Zm-89.661-11.1H143.3c-8.808,0-17.615.021-26.423-.017-1.762-.008-3.186.475-3.293,2.381-.161,2.871-.042,5.757-.042,8.614h44.968Z" transform="translate(-91.248 -292.967)" fill="#ffffeb"/>
      <path id="Trazado_1262844" data-name="Trazado 1262844" d="M286.564,436.3c-5.245,0-10.49.013-15.735-.006-2.434-.009-3.8-1.059-3.625-2.847.217-2.155,1.7-2.635,3.625-2.628q15.977.054,31.955,0c1.945-.007,3.4.519,3.642,2.633.2,1.738-1.25,2.837-3.642,2.846C297.377,436.315,291.97,436.3,286.564,436.3Z" transform="translate(-177.448 -360.505)" fill="#ffffeb"/>
      <path id="Trazado_1262845" data-name="Trazado 1262845" d="M334.746,392.26c-4.691,0-9.383.009-14.074,0-2.668-.007-4.11-.983-3.954-2.811.2-2.3,1.81-2.748,3.81-2.741,9.625.033,19.25,0,28.875.023q3.81.007,3.661,2.815c-.124,2.406-1.793,2.742-3.759,2.729C344.452,392.238,339.6,392.26,334.746,392.26Z" transform="translate(-201.709 -338.892)" fill="#ffffeb"/>
      <path id="Trazado_1262846" data-name="Trazado 1262846" d="M226.909,359.394c-2.6-1.959-4.954-3.776-7.353-5.536-1.593-1.169-2.66-2.49-1.4-4.472,1.008-1.59,2.628-1.628,4.634-.144,3.314,2.45,6.619,4.914,9.883,7.43,2.408,1.855,2.395,3.582-.047,5.456-3.333,2.559-6.725,5.041-10.086,7.563-1.491,1.119-3.053,1.364-4.279-.2-1.329-1.7-.589-3.155.993-4.331C221.712,363.328,224.154,361.469,226.909,359.394Z" transform="translate(-153.137 -320.008)" fill="#ffffeb"/>
      <path id="Trazado_1262847" data-name="Trazado 1262847" d="M291.109,458.419c2.72,2.049,5.161,3.9,7.62,5.736,1.564,1.164,2.378,2.616,1.056,4.326-1.3,1.684-2.884,1.318-4.45.121-3.338-2.551-6.752-5-10.082-7.566-2.292-1.763-2.266-3.511.049-5.29,3.332-2.56,6.715-5.051,10.068-7.583,1.548-1.169,3.136-1.555,4.433.205s.453,3.179-1.087,4.334C296.267,454.537,293.822,456.379,291.109,458.419Z" transform="translate(-185.463 -368.515)" fill="#ffffeb"/>
      <path id="Trazado_1262848" data-name="Trazado 1262848" d="M364.484,458.426c-2.748-2.074-5.332-3.965-7.846-5.945-1.669-1.314-1.9-3.128-.661-4.371a2.583,2.583,0,0,1,3.7-.311c3.694,2.735,7.41,5.442,11.033,8.268,1.757,1.37,1.734,3.314-.05,4.714-3.552,2.787-7.176,5.485-10.823,8.146-1.415,1.032-2.975,1.021-4.062-.481-1.066-1.473-.693-2.908.751-4.008C359.082,462.49,361.653,460.563,364.484,458.426Z" transform="translate(-220.55 -368.512)" fill="#ffffeb"/>
      <path id="Trazado_1262849" data-name="Trazado 1262849" d="M153.588,359.395c2.677,2.03,5.071,3.9,7.531,5.688,1.595,1.156,2.313,2.516,1.217,4.318-.905,1.488-2.771,1.5-4.651.108-3.239-2.4-6.476-4.8-9.683-7.242-2.629-2-2.594-3.766.067-5.775,3.216-2.428,6.428-4.864,9.672-7.254,1.978-1.457,3.64-1.4,4.616.191,1.122,1.83.27,3.19-1.259,4.325C158.657,355.565,156.236,357.4,153.588,359.395Z" transform="translate(-118.098 -320.022)" fill="#ffffeb"/>
      <path id="Trazado_1262850" data-name="Trazado 1262850" d="M304.629,414.281c-3.963,0-7.927-.045-11.89.019-1.99.032-3.521-.661-3.532-2.734s1.489-2.78,3.494-2.768q11.889.071,23.78,0c1.988-.012,3.52.655,3.534,2.732s-1.5,2.8-3.5,2.768C312.557,414.24,308.592,414.281,304.629,414.281Z" transform="translate(-188.236 -349.717)" fill="#ffffeb"/>
      <path id="Trazado_1262851" data-name="Trazado 1262851" d="M237.42,474.7c3.4,0,6.792.018,10.189-.007,1.914-.014,3.407.558,3.638,2.69.191,1.758-1.267,2.976-3.588,2.987-6.954.034-13.908.017-20.863.008-1.907,0-3.436-.62-3.456-2.828s1.476-2.848,3.405-2.849Q232.083,474.695,237.42,474.7Z" transform="translate(-155.965 -382)" fill="#ffffeb"/>
      <path id="Trazado_1262852" data-name="Trazado 1262852" d="M347.2,370.232c-3.4,0-6.793-.029-10.189.011-2,.024-3.6-.513-3.833-2.765-.18-1.7,1.362-2.909,3.678-2.919q10.31-.044,20.621,0c2.46.01,3.745,1.034,3.648,2.887-.124,2.366-1.76,2.806-3.735,2.792C353.99,370.215,350.594,370.232,347.2,370.232Z" transform="translate(-209.77 -328.032)" fill="#ffffeb"/>
      <path id="Trazado_1262853" data-name="Trazado 1262853" d="M160.276,452.8c3.474,0,6.948.028,10.422-.011,1.966-.021,3.494.667,3.489,2.779s-1.536,2.788-3.5,2.781c-7.028-.025-14.057-.016-21.085-.009-1.972,0-3.389-.7-3.321-2.9.064-2.074,1.487-2.654,3.329-2.645C153.167,452.813,156.721,452.8,160.276,452.8Z" transform="translate(-118.21 -371.269)" fill="#ffffeb"/>
      <path id="Trazado_1262854" data-name="Trazado 1262854" d="M325.719,469.509c-2.728.082-4.173-1.771-3.221-3.79,2.712-5.75,5.6-11.419,8.531-17.062a2.409,2.409,0,0,1,3.67-1.085,2.583,2.583,0,0,1,1.177,3.694c-2.758,5.553-5.5,11.116-8.351,16.619C327.1,468.693,326.087,469.19,325.719,469.509Z" transform="translate(-204.402 -368.488)" fill="#ffffeb"/>
      <path id="Trazado_1262855" data-name="Trazado 1262855" d="M199.152,350.77c-.472,1.253-.669,1.951-.986,2.59q-3.756,7.571-7.557,15.12c-1.182,2.34-3.493,3.14-4.747,1.494a4,4,0,0,1-.474-3.421q3.806-8.211,8.1-16.187a4.146,4.146,0,0,1,3.192-1.761C197.559,348.635,198.389,350.051,199.152,350.77Z" transform="translate(-137.271 -320.226)" fill="#ffffeb"/>
      <path id="Trazado_1262856" data-name="Trazado 1262856" d="M267.336,353.8c-2.588,0-5.176.023-7.764-.007-1.956-.023-3.41-.87-3.344-2.98.062-1.974,1.5-2.713,3.349-2.715,5.257,0,10.514-.013,15.771.005,1.876.007,3.25.913,3.244,2.834s-1.381,2.829-3.251,2.853C272.674,353.823,270.005,353.8,267.336,353.8Z" transform="translate(-172.077 -319.974)" fill="#ffffeb"/>
      <path id="Trazado_1262857" data-name="Trazado 1262857" d="M157.424,414.294c-2.738,0-5.478.007-8.217,0-1.821-.007-2.949-.861-2.935-2.752s1.171-2.7,2.985-2.7c5.4,0,10.794.01,16.191-.007,1.816-.006,3.028.787,3.073,2.639.047,1.988-1.193,2.844-3.122,2.83C162.741,414.281,160.082,414.295,157.424,414.294Z" transform="translate(-118.206 -349.733)" fill="#ffffeb"/>
      <path id="Trazado_1262858" data-name="Trazado 1262858" d="M188.865,430.854c2.255,0,4.509.024,6.764-.007,1.823-.024,3.055.818,3.108,2.621.057,1.932-1.168,2.859-3.116,2.851-4.429-.018-8.857-.009-13.286,0-1.923,0-3.15-.851-3.089-2.857.057-1.889,1.31-2.618,3.1-2.607C184.517,430.864,186.691,430.854,188.865,430.854Z" transform="translate(-134.36 -360.519)" fill="#ffffeb"/>
      <path id="Trazado_1262859" data-name="Trazado 1262859" d="M319.667,348.1c1.7,0,3.39-.02,5.085,0,1.881.027,3.2.931,3.2,2.857a2.739,2.739,0,0,1-3.012,2.813q-5.325.09-10.653,0c-1.881-.032-3.177-1.087-3.1-2.981.073-1.754,1.371-2.66,3.148-2.687S317.892,348.1,319.667,348.1Z" transform="translate(-199.006 -319.973)" fill="#ffffeb"/>
      <path id="Trazado_1262860" data-name="Trazado 1262860" d="M297.523,370.22c-1.776,0-3.553.047-5.327-.011s-3.008-1.042-3-2.814a2.747,2.747,0,0,1,3.008-2.819c3.631-.051,7.265-.07,10.895.016a2.807,2.807,0,1,1-.01,5.61C301.237,370.274,299.379,370.219,297.523,370.22Z" transform="translate(-188.231 -328.03)" fill="#ffffeb"/>
      <path id="Trazado_1262861" data-name="Trazado 1262861" d="M187.414,474.7c1.771,0,3.543-.025,5.314.007,1.856.033,3.155.817,3.147,2.848-.007,1.887-1.228,2.762-2.97,2.795q-5.312.1-10.628,0c-1.859-.035-3.121-.986-3.041-2.978.076-1.874,1.366-2.625,3.105-2.664C184.032,474.67,185.724,474.7,187.414,474.7Z" transform="translate(-134.355 -381.999)" fill="#ffffeb"/>
      <path id="Trazado_1262862" data-name="Trazado 1262862" d="M363.745,353.773c-1.771,0-3.546.059-5.314-.013-1.845-.075-3.14-.952-3.086-2.95.05-1.869,1.32-2.692,3.059-2.716,3.543-.049,7.088-.061,10.63.007,1.744.033,2.948.909,2.953,2.8s-1.186,2.759-2.927,2.849C367.293,353.842,365.517,353.771,363.745,353.773Z" transform="translate(-220.638 -319.956)" fill="#ffffeb"/>
      <path id="Trazado_1262863" data-name="Trazado 1262863" d="M253.521,458.325c-1.77,0-3.541.033-5.31-.007-1.81-.04-2.921-.954-2.9-2.816a2.521,2.521,0,0,1,2.778-2.682q5.55-.068,11.1,0A2.56,2.56,0,0,1,262,455.5c.013,1.818-1.116,2.774-2.927,2.812C257.222,458.354,255.371,458.324,253.521,458.325Z" transform="translate(-166.729 -371.268)" fill="#ffffeb"/>
      <path id="Trazado_1262864" data-name="Trazado 1262864" d="M209.4,414.288c-1.778,0-3.557.029-5.334-.007a2.494,2.494,0,0,1-2.774-2.679,2.46,2.46,0,0,1,2.7-2.741c3.717-.041,7.435-.034,11.153-.008a2.711,2.711,0,1,1,.073,5.421C213.279,414.326,211.339,414.286,209.4,414.288Z" transform="translate(-145.162 -349.734)" fill="#ffffeb"/>
      <path id="Trazado_1262865" data-name="Trazado 1262865" d="M253.512,414.282c-1.861,0-3.723.044-5.582-.013a2.7,2.7,0,0,1,.015-5.4c3.8-.052,7.6-.046,11.406,0a2.468,2.468,0,0,1,2.642,2.584,2.51,2.51,0,0,1-2.657,2.817C257.4,414.339,255.453,414.282,253.512,414.282Z" transform="translate(-166.729 -349.732)" fill="#ffffeb"/>
      <path id="Trazado_1262866" data-name="Trazado 1262866" d="M281.249,392.265c-1.779,0-3.558.011-5.337,0s-3.013-.748-3.064-2.67c-.049-1.893,1.061-2.824,2.88-2.843q5.458-.057,10.917.007a2.543,2.543,0,0,1,2.835,2.652c.044,1.89-1.084,2.792-2.894,2.841C284.808,392.3,283.028,392.263,281.249,392.265Z" transform="translate(-180.22 -338.903)" fill="#ffffeb"/>
      <path id="Trazado_1262867" data-name="Trazado 1262867" d="M363.7,436.3c-1.859,0-3.718.026-5.576-.007a2.517,2.517,0,0,1-2.782-2.689,2.487,2.487,0,0,1,2.73-2.731c3.717-.042,7.436-.035,11.154-.007a2.713,2.713,0,1,1,.051,5.425C367.416,436.335,365.556,436.3,363.7,436.3Z" transform="translate(-220.636 -360.519)" fill="#ffffeb"/>
      <path id="Trazado_1262868" data-name="Trazado 1262868" d="M368.015,408.776c1.455,0,3.016-.319,4.331.11a4.1,4.1,0,0,1,2.318,2.5,2.2,2.2,0,0,1-2.3,2.762,58.908,58.908,0,0,1-8.958-.09,3.612,3.612,0,0,1-2.428-2.589c0-.9,1.408-2.246,2.46-2.586C364.833,408.433,366.479,408.772,368.015,408.776Z" transform="translate(-223.401 -349.644)" fill="#ffffeb"/>
      <path id="Trazado_1262869" data-name="Trazado 1262869" d="M219.266,452.817c1.375,0,2.754-.06,4.125.014a2.543,2.543,0,0,1,2.69,2.8,2.466,2.466,0,0,1-2.572,2.656,59.819,59.819,0,0,1-8.72-.105,3.885,3.885,0,0,1-2.551-2.577c-.3-1.563.939-2.679,2.659-2.768C216.35,452.759,217.81,452.818,219.266,452.817Z" transform="translate(-150.504 -371.272)" fill="#ffffeb"/>
      <path id="Trazado_1262870" data-name="Trazado 1262870" d="M235.7,430.866c1.373,0,2.746-.022,4.118.005,1.723.034,2.774.9,2.8,2.653a2.47,2.47,0,0,1-2.677,2.767q-4.238.078-8.478,0a2.478,2.478,0,0,1-2.689-2.761,2.515,2.515,0,0,1,2.8-2.659C232.953,430.844,234.326,430.866,235.7,430.866Z" transform="translate(-158.629 -360.525)" fill="#ffffeb"/>
      <path id="Trazado_1262871" data-name="Trazado 1262871" d="M261.787,370.131a23.167,23.167,0,0,1-2.892-.022c-1.628-.206-2.946-1.2-2.572-2.83a4.13,4.13,0,0,1,2.5-2.634,20.363,20.363,0,0,1,5.758-.121,2.66,2.66,0,0,1,2.779,2.752c.021,1.847-1.172,2.725-2.921,2.857-.88.067-1.768.012-2.653.012Z" transform="translate(-172.093 -327.954)" fill="#ffffeb"/>
      <path id="Trazado_1262872" data-name="Trazado 1262872" d="M151.781,480.187a20.588,20.588,0,0,1-3.146-.028c-1.557-.24-2.679-1.32-2.283-2.844a3.928,3.928,0,0,1,2.3-2.561,16.847,16.847,0,0,1,6.259,0c.954.185,2.362,1.705,2.3,2.522-.079,1.022-1.3,2.221-2.332,2.817C154.092,480.549,152.831,480.185,151.781,480.187Z" transform="translate(-118.206 -381.888)" fill="#ffffeb"/>
      <path id="Trazado_1262873" data-name="Trazado 1262873" d="M151.8,436.286c-.968,0-1.938.042-2.9-.008a2.484,2.484,0,0,1-2.625-2.81,2.426,2.426,0,0,1,2.589-2.6c1.934-.063,3.874-.064,5.808,0a2.705,2.705,0,0,1,.036,5.409C153.734,436.318,152.764,436.284,151.8,436.286Z" transform="translate(-118.203 -360.507)" fill="#ffffeb"/>
      <path id="Trazado_1262874" data-name="Trazado 1262874" d="M295.153,315.219c-4.447,0-8.893-.019-13.339.009-1.929.012-3.467-.5-3.475-2.739s1.516-2.768,3.451-2.763q13.339.029,26.678,0c2.012-.007,3.444.771,3.388,2.864-.052,1.953-1.471,2.665-3.365,2.646C304.046,315.189,299.6,315.219,295.153,315.219Z" transform="translate(-182.911 -301.176)" fill="#ffffeb"/>
      <path id="Trazado_1262875" data-name="Trazado 1262875" d="M361.066,315.229c-2.74,0-5.481.015-8.221,0-1.8-.012-2.957-.831-2.949-2.744s1.165-2.722,2.969-2.725q8.221-.012,16.442,0a2.575,2.575,0,0,1,2.867,2.623c.059,1.8-1.043,2.819-2.887,2.837C366.547,315.248,363.806,315.228,361.066,315.229Z" transform="translate(-217.969 -301.191)" fill="#ffffeb"/>
      <path id="Trazado_1262876" data-name="Trazado 1262876" d="M247.891,315.22c-1.772,0-3.543.013-5.315,0a2.734,2.734,0,1,1-.006-5.459q5.556-.035,11.113.008a2.72,2.72,0,1,1,.006,5.438C251.758,315.253,249.824,315.217,247.891,315.22Z" transform="translate(-163.973 -301.186)" fill="#ffffeb"/>
      <path id="Trazado_1262877" data-name="Trazado 1262877" d="M173.785,315.2c-.968,0-1.938.048-2.9-.009a2.523,2.523,0,0,1-2.653-2.806,2.467,2.467,0,0,1,2.6-2.614c1.933-.062,3.871-.065,5.8,0a2.712,2.712,0,0,1,.058,5.421C175.723,315.252,174.753,315.2,173.785,315.2Z" transform="translate(-128.963 -301.179)" fill="#ffffeb"/>
      <path id="Trazado_1262878" data-name="Trazado 1262878" d="M146.31,315.067c-1.048,0-2.265.331-3.1-.09-.994-.5-2.363-1.715-2.29-2.5a3.76,3.76,0,0,1,2.315-2.695,16.392,16.392,0,0,1,6.241,0,3.839,3.839,0,0,1,2.283,2.509c.379,1.516-.693,2.593-2.3,2.765A28.811,28.811,0,0,1,146.31,315.067Z" transform="translate(-115.582 -301.056)" fill="#ffffeb"/>
      <path id="Trazado_1262879" data-name="Trazado 1262879" d="M201.23,315.2c-.968,0-1.94.057-2.9-.015a2.471,2.471,0,0,1-2.54-2.661,2.421,2.421,0,0,1,2.444-2.736c2.011-.1,4.033-.081,6.046-.013a2.487,2.487,0,0,1,2.574,2.652,2.56,2.56,0,0,1-2.718,2.767C203.168,315.242,202.2,315.2,201.23,315.2Z" transform="translate(-142.466 -301.176)" fill="#ffffeb"/>
    </g>
  </g>
</svg>
