<svg xmlns="http://www.w3.org/2000/svg" width="166.652" height="156.624" viewBox="0 0 166.652 156.624">
  <g id="Grupo_1204794" data-name="Grupo 1204794" transform="translate(13360.775 11990.822)">
    <g id="Grupo_1204676" data-name="Grupo 1204676" transform="translate(-13360.775 -11990.822)">
      <path id="Trazado_1262880" data-name="Trazado 1262880" d="M632.595,180.1V68.134h96.277v61.935h-4.6V89.079H637.545v86.309h40.011V180.1Zm4.891-96.128H724.1V73.032H637.486Z" transform="translate(-582.003 -42.508)" fill="#ffffeb"/>
      <path id="Trazado_1262881" data-name="Trazado 1262881" d="M771.607,205.858a32.923,32.923,0,1,1-32.94,32.922A33.016,33.016,0,0,1,771.607,205.858Zm.039,60.974a28.1,28.1,0,0,0,.019-56.191,28.1,28.1,0,1,0-.019,56.191Z" transform="translate(-637.897 -115.081)" fill="#ffffeb"/>
      <path id="Trazado_1262882" data-name="Trazado 1262882" d="M571.146,312.65a9.5,9.5,0,1,1,9.516-9.391A9.488,9.488,0,0,1,571.146,312.65Zm-.086-14.125a4.618,4.618,0,1,0,.089,9.236,4.541,4.541,0,0,0,4.65-4.675A4.487,4.487,0,0,0,571.061,298.525Z" transform="translate(-544.633 -161.338)" fill="#ffffeb"/>
      <path id="Trazado_1262883" data-name="Trazado 1262883" d="M792.22,23.534a9.426,9.426,0,0,1-9.664,9.423,9.5,9.5,0,1,1,.369-18.994A9.428,9.428,0,0,1,792.22,23.534Zm-9.518-4.7a4.539,4.539,0,0,0-4.6,4.73,4.639,4.639,0,1,0,9.277-.087A4.531,4.531,0,0,0,782.7,18.833Z" transform="translate(-656.092 -13.962)" fill="#ffffeb"/>
      <path id="Trazado_1262884" data-name="Trazado 1262884" d="M535.511,188.394v4.3c-5.354,1.176-9.708-2.054-9.789-7.338q-.154-10.014,0-20.032c.073-5.3,4.037-8.265,9.787-7.391v4.287c-.251.134-.374.254-.506.263-4.216.3-4.381.473-4.383,4.673q0,7.991,0,15.982C530.615,187.685,530.8,187.9,535.511,188.394Z" transform="translate(-525.646 -89.747)" fill="#ffffeb"/>
      <path id="Trazado_1262885" data-name="Trazado 1262885" d="M594.708,192.706v-4.152c.119-.091.224-.243.344-.255,4.358-.452,4.753-.885,4.754-5.255q0-7.42,0-14.841c0-5.138,0-5.138-5.087-5.933V157.94c5.758-1.131,9.76,1.9,9.852,7.615q.158,9.779-.006,19.562C604.465,190.608,600.336,193.747,594.708,192.706Z" transform="translate(-562.038 -89.707)" fill="#ffffeb"/>
      <path id="Trazado_1262886" data-name="Trazado 1262886" d="M664.107,228.182H694v4.654h-2.677q-12.152,0-24.3,0c-3.14,0-3.143,0-3.046-3.225C663.986,229.174,664.053,228.741,664.107,228.182Z" transform="translate(-598.523 -126.844)" fill="#ffffeb"/>
      <path id="Trazado_1262887" data-name="Trazado 1262887" d="M694.1,150.034v4.674h-26.89c-3.369,0-3.371,0-3.249-3.453.013-.36.072-.719.126-1.221Z" transform="translate(-598.514 -85.664)" fill="#ffffeb"/>
      <path id="Trazado_1262888" data-name="Trazado 1262888" d="M741.034,193.511v-4.45h29.959v4.45Z" transform="translate(-639.144 -106.23)" fill="#ffffeb"/>
      <path id="Trazado_1262889" data-name="Trazado 1262889" d="M739.305,14.088h4.541V32.855h-4.541Z" transform="translate(-638.233 -14.028)" fill="#ffffeb"/>
      <path id="Trazado_1262890" data-name="Trazado 1262890" d="M760.886,33.012h-4.573V14.264h4.573Z" transform="translate(-647.195 -14.121)" fill="#ffffeb"/>
      <path id="Trazado_1262891" data-name="Trazado 1262891" d="M609.112,293.765h4.539v18.809h-4.539Z" transform="translate(-569.628 -161.403)" fill="#ffffeb"/>
      <path id="Trazado_1262892" data-name="Trazado 1262892" d="M740.954,174v-4.556h15.5V174Z" transform="translate(-639.102 -95.893)" fill="#ffffeb"/>
      <path id="Trazado_1262893" data-name="Trazado 1262893" d="M695.369,247.656h15.252v4.519H695.369Z" transform="translate(-615.081 -137.106)" fill="#ffffeb"/>
      <path id="Trazado_1262894" data-name="Trazado 1262894" d="M710.531,271.9H695.317v-4.611h15.214Z" transform="translate(-615.054 -147.454)" fill="#ffffeb"/>
      <path id="Trazado_1262895" data-name="Trazado 1262895" d="M695.268,174v-4.681h15.238V174Z" transform="translate(-615.028 -95.825)" fill="#ffffeb"/>
      <path id="Trazado_1262896" data-name="Trazado 1262896" d="M664.343,208.4H678.7V213H664.343Z" transform="translate(-598.732 -116.419)" fill="#ffffeb"/>
      <path id="Trazado_1262897" data-name="Trazado 1262897" d="M678.618,135.024H664.246v-4.639h14.372Z" transform="translate(-598.681 -75.31)" fill="#ffffeb"/>
      <path id="Trazado_1262898" data-name="Trazado 1262898" d="M756.613,150.042v4.5h-15.44v-4.5Z" transform="translate(-639.218 -85.669)" fill="#ffffeb"/>
      <path id="Trazado_1262899" data-name="Trazado 1262899" d="M695.272,193.554v-4.513h15.244v4.513Z" transform="translate(-615.03 -106.219)" fill="#ffffeb"/>
      <path id="Trazado_1262900" data-name="Trazado 1262900" d="M583.085,194.757V190.2h4.72v4.56Z" transform="translate(-555.914 -106.828)" fill="#ffffeb"/>
      <path id="Trazado_1262901" data-name="Trazado 1262901" d="M546.18,194.724v-4.506H550.8v4.506Z" transform="translate(-536.466 -106.839)" fill="#ffffeb"/>
      <path id="Trazado_1262902" data-name="Trazado 1262902" d="M564.829,190.137h4.481v4.591h-4.481Z" transform="translate(-546.293 -106.797)" fill="#ffffeb"/>
      <path id="Trazado_1262903" data-name="Trazado 1262903" d="M684.926,89.712V85.19h4.644v4.522Z" transform="translate(-609.578 -51.495)" fill="#ffffeb"/>
      <path id="Trazado_1262904" data-name="Trazado 1262904" d="M668.969,85.238v4.488h-4.606V85.238Z" transform="translate(-598.743 -51.52)" fill="#ffffeb"/>
      <path id="Trazado_1262905" data-name="Trazado 1262905" d="M705.552,89.763V85.307h4.486v4.456Z" transform="translate(-620.447 -51.557)" fill="#ffffeb"/>
      <path id="Trazado_1262906" data-name="Trazado 1262906" d="M807.585,245.949l-7.923,27.9-4.686-1.238,7.938-27.964Z" transform="translate(-667.568 -135.52)" fill="#ffffeb"/>
      <path id="Trazado_1262907" data-name="Trazado 1262907" d="M774.515,254.148l2.947,3.5-7.359,6.474,7.632,6.832-3.3,3.365-10.109-10.165Z" transform="translate(-651.419 -140.527)" fill="#ffffeb"/>
      <path id="Trazado_1262908" data-name="Trazado 1262908" d="M831.347,264.454l-7.731-6.855,3.745-3.034,9.672,9.945-10.064,9.823-3.345-3.028Z" transform="translate(-682.661 -140.747)" fill="#ffffeb"/>
    </g>
  </g>
</svg>
