<svg xmlns="http://www.w3.org/2000/svg" width="84" height="84" viewBox="0 0 84 84">
  <g id="Grupo_1204791" data-name="Grupo 1204791" transform="translate(-726 -402.555)">
    <circle id="Elipse_13708" data-name="Elipse 13708" cx="42" cy="42" r="42" transform="translate(726 402.555)" fill="#a6f6af"/>
    <g id="Grupo_1204734" data-name="Grupo 1204734" transform="translate(633.132 192.393)">
      <path id="Trazado_1263068" data-name="Trazado 1263068" d="M134.588,269.917a3.6,3.6,0,0,1-.669-2.349q.042-2.114,0-4.23a3.527,3.527,0,0,1,.62-2.219c-.173-.841-.705-.971-1.469-.969-7.33.028-14.661.009-21.991.023a3.5,3.5,0,0,1-3.462-2.08,3.4,3.4,0,0,1-.307-1.405q-.026-14.268-.007-28.537a3.44,3.44,0,0,1,3.62-3.467q13.11-.011,26.22,0c2.973,0,5.95.086,8.919-.028A3.762,3.762,0,0,1,150,228.563c-.081,7.255-.03,14.511-.03,21.767v.926c.314.015.584.038.855.038,2.9,0,5.794.061,8.688-.021a2.778,2.778,0,0,1,2.925,2.917c-.086,1.585-.034,3.178-.012,4.768a2.943,2.943,0,0,1-.654,2.1c.791.789.644,1.811.647,2.8,0,1.308-.014,2.615.006,3.923a2.8,2.8,0,0,1-.656,2.123,3.363,3.363,0,0,1,.654,2.545c-.015,1.461,0,2.923-.006,4.384a2.6,2.6,0,0,1-2.8,2.841q-11.419.009-22.837,0a2.675,2.675,0,0,1-2.852-2.83c-.015-1.538.016-3.077-.011-4.615A3.668,3.668,0,0,1,134.588,269.917Zm13.55-18.621v-19.44H109.066v.806q0,11.727,0,23.454c0,1.606.68,2.278,2.3,2.278q10.877,0,21.755,0c.248,0,.5-.023.809-.038,0-1.4.036-2.757-.009-4.109a2.836,2.836,0,0,1,2.978-2.972c3.458.078,6.918.022,10.377.022Zm.048-21.37c0-.666.046-1.255-.012-1.833a1.638,1.638,0,0,0-1.084-1.466,3.891,3.891,0,0,0-1.279-.176q-17.181-.013-34.363-.007a5.047,5.047,0,0,0-.691.014,1.67,1.67,0,0,0-1.567,1.268,14.8,14.8,0,0,0-.147,2.2Zm7.089,32.083c-.163-.019-.261-.041-.359-.041q-9.036,0-18.073,0c-.783,0-1.046.283-1.051,1.084-.01,1.538,0,3.077,0,4.616,0,1.134.208,1.342,1.343,1.342q8.69,0,17.381,0c.247,0,.493-.023.762-.037Zm-.016,8.894a2.676,2.676,0,0,0-.308-.045q-9.074,0-18.147,0c-.757,0-1,.263-1.011,1.033-.012,1.513,0,3.025,0,4.538,0,1.281.2,1.482,1.454,1.482q8.612,0,17.225,0c.25,0,.5-.021.791-.034Zm0-17.781a1.47,1.47,0,0,0-.231-.053q-9.074-.006-18.149,0c-.8,0-1.084.322-1.088,1.148-.009,1.513,0,3.026,0,4.539,0,1.212.156,1.367,1.378,1.367q8.651,0,17.3,0c.25,0,.5-.022.789-.036Zm4.6,8.874v6.981a.891.891,0,0,0,.786-.958q.016-2.535,0-5.069A.884.884,0,0,0,159.856,262Zm-.014-8.88V260.1a.86.86,0,0,0,.8-.923q.026-2.568,0-5.137A.873.873,0,0,0,159.841,253.116Zm-.008,24.736c.488-.072.773-.35.78-.756.031-1.813.036-3.627,0-5.44a.688.688,0,0,0-.783-.737Zm-1.945-17.773v-7.008l-.706.036v6.972Zm0,8.891v-7.009l-.711.055v6.954Zm-.7,1.918V277.9l.7-.038v-6.973Z" transform="translate(0 0)" fill="#043239"/>
      <path id="Trazado_1263069" data-name="Trazado 1263069" d="M178.865,316.579c.908,1.109,1.8,2.194,2.686,3.282a7.492,7.492,0,0,1,.458.614.783.783,0,0,1-.19,1.1.761.761,0,0,1-1.113.034q-1.969-2.3-3.829-4.692a1,1,0,0,1,.123-.9c1.134-1.516,2.3-3.006,3.485-4.484a.847.847,0,0,1,1.278-.22.864.864,0,0,1,.127,1.346c-.83,1.1-1.695,2.182-2.543,3.272C179.191,316.129,179.045,316.335,178.865,316.579Z" transform="translate(-58.828 -73.165)" fill="#043239"/>
      <path id="Trazado_1263070" data-name="Trazado 1263070" d="M278.067,316.249c-.9-1.1-1.789-2.183-2.678-3.269a4.679,4.679,0,0,1-.469-.606.821.821,0,0,1,.185-1.107c.351-.315.8-.406,1.1-.055,1.312,1.533,2.6,3.092,3.831,4.687a1.1,1.1,0,0,1-.144.978c-1.116,1.5-2.277,2.96-3.442,4.419a.907.907,0,0,1-1.287.223.875.875,0,0,1-.117-1.344c.881-1.161,1.787-2.3,2.681-3.455C277.84,316.583,277.935,316.436,278.067,316.249Z" transform="translate(-141.733 -73.061)" fill="#043239"/>
      <path id="Trazado_1263071" data-name="Trazado 1263071" d="M218.675,321.838a.883.883,0,0,1-.832-1.319c.316-.553.7-1.066,1.066-1.593q2.393-3.477,4.791-6.95a3.9,3.9,0,0,1,.369-.49.829.829,0,0,1,1.167-.164.86.86,0,0,1,.28,1.206c-.187.334-.42.642-.638.958q-2.634,3.823-5.27,7.644C219.357,321.493,219.12,321.87,218.675,321.838Z" transform="translate(-93.444 -73.2)" fill="#043239"/>
      <path id="Trazado_1263072" data-name="Trazado 1263072" d="M125.83,243.751a3.919,3.919,0,0,1-.46,0,.986.986,0,0,1-.932-.94.961.961,0,0,1,.979-.886,5.518,5.518,0,0,1,.69,0c.644.032,1.023.366,1.03.9s-.374.887-1,.939c-.1.008-.2,0-.306,0Z" transform="translate(-14.508 -14.607)" fill="#043239"/>
      <path id="Trazado_1263073" data-name="Trazado 1263073" d="M172.09,241.949a3.758,3.758,0,0,1,.384,0,.963.963,0,0,1,.943.926.983.983,0,0,1-.9.893,4.315,4.315,0,0,1-.843.007.986.986,0,0,1-.978-.9.962.962,0,0,1,1.013-.932c.127-.009.256,0,.384,0Z" transform="translate(-53.649 -14.635)" fill="#043239"/>
      <path id="Trazado_1263074" data-name="Trazado 1263074" d="M148.952,241.908a3.008,3.008,0,0,1,.535.031.885.885,0,0,1,.767.841.86.86,0,0,1-.749.929,3.786,3.786,0,0,1-1.069.027.908.908,0,1,1,.055-1.815c.152-.015.307,0,.461,0Z" transform="translate(-34.058 -14.605)" fill="#043239"/>
      <path id="Trazado_1263075" data-name="Trazado 1263075" d="M300.743,478.24a2.653,2.653,0,1,1,2.659-2.674A2.615,2.615,0,0,1,300.743,478.24Zm.873-2.628a.957.957,0,0,0-.868-.9.984.984,0,0,0-.885.893,1.009,1.009,0,0,0,.835.865A.96.96,0,0,0,301.616,475.612Z" transform="translate(-161.439 -210.103)" fill="#043239"/>
      <path id="Trazado_1263076" data-name="Trazado 1263076" d="M360.234,474.663c-1.124,0-2.248.006-3.372,0-.7-.005-1.121-.345-1.125-.871s.425-.885,1.11-.887q3.372-.012,6.744,0c.731,0,1.072.316,1.056.909-.016.56-.341.84-1.04.847C362.482,474.671,361.358,474.662,360.234,474.663Z" transform="translate(-210.236 -210.071)" fill="#043239"/>
      <path id="Trazado_1263077" data-name="Trazado 1263077" d="M392.355,491.847a7.136,7.136,0,0,1-.992-.009.84.84,0,0,1-.776-.895.816.816,0,0,1,.8-.868,14.3,14.3,0,0,1,1.988,0,.782.782,0,0,1,.76.814.821.821,0,0,1-.712.937,7.9,7.9,0,0,1-1.067.062Z" transform="translate(-239.727 -224.581)" fill="#043239"/>
      <path id="Trazado_1263078" data-name="Trazado 1263078" d="M303.4,532.988a2.666,2.666,0,1,1-5.331.085,2.666,2.666,0,1,1,5.331-.085Zm-2.642.879a.874.874,0,0,0,.856-.815.885.885,0,0,0-.893-.865.916.916,0,0,0-.863.826A.891.891,0,0,0,300.759,533.867Z" transform="translate(-161.437 -258.675)" fill="#043239"/>
      <path id="Trazado_1263079" data-name="Trazado 1263079" d="M360.452,532.142c-1.075,0-2.15.006-3.225,0a1.1,1.1,0,0,1-.657-.118c-.244-.22-.547-.548-.54-.823s.323-.592.577-.8a1.153,1.153,0,0,1,.665-.1c2.124-.006,4.248,0,6.372,0,.1,0,.205-.005.307.005a.91.91,0,0,1,.943.909.888.888,0,0,1-.987.932c-1.151.023-2.3.007-3.455.007Z" transform="translate(-210.485 -258.636)" fill="#043239"/>
      <path id="Trazado_1263080" data-name="Trazado 1263080" d="M392.335,547.912c.331,0,.664-.026.992.006a.787.787,0,0,1,.77.872.772.772,0,0,1-.778.862,18.61,18.61,0,0,1-1.985,0,.869.869,0,0,1,.008-1.732C391.671,547.889,392,547.912,392.335,547.912Z" transform="translate(-239.69 -273.542)" fill="#043239"/>
      <path id="Trazado_1263081" data-name="Trazado 1263081" d="M303.4,417.786a2.681,2.681,0,0,1-2.681,2.674,2.711,2.711,0,0,1-2.65-2.716,2.665,2.665,0,1,1,5.331.042Zm-2.655-.858a.892.892,0,0,0-.885.869.917.917,0,0,0,.875.816.893.893,0,0,0,.878-.883A.872.872,0,0,0,300.747,416.929Z" transform="translate(-161.438 -161.152)" fill="#043239"/>
      <path id="Trazado_1263082" data-name="Trazado 1263082" d="M360.25,415.049c1.1,0,2.2-.008,3.3,0,.731.008,1.092.312,1.1.888s-.358.932-1.064.937q-3.376.023-6.753,0a.987.987,0,0,1-1.092-.937c.012-.529.44-.88,1.131-.887C358,415.041,359.125,415.049,360.25,415.049Z" transform="translate(-210.241 -161.117)" fill="#043239"/>
      <path id="Trazado_1263083" data-name="Trazado 1263083" d="M392.3,434.009c-.281,0-.565.022-.843,0a.957.957,0,0,1-.932-.933.925.925,0,0,1,.886-.894,13.143,13.143,0,0,1,1.839,0,.864.864,0,0,1,.834.923.882.882,0,0,1-.864.9,8.607,8.607,0,0,1-.919.006Z" transform="translate(-239.673 -175.588)" fill="#043239"/>
    </g>
  </g>
</svg>
