<svg xmlns="http://www.w3.org/2000/svg" xmlns:xlink="http://www.w3.org/1999/xlink" width="1328" height="559" viewBox="0 0 1328 559">
  <defs>
    <clipPath id="clip-path">
      <rect id="Rectángulo_455269" data-name="Rectángulo 455269" width="734" height="559" rx="20" transform="translate(1464.833 677) rotate(180)" fill="#69d2cd"/>
    </clipPath>
  </defs>
  <g id="Grupo_1204791" data-name="Grupo 1204791" transform="translate(-136.833 -118)">
    <rect id="Rectángulo_401156" data-name="Rectángulo 401156" width="1328" height="559" rx="20" transform="translate(1464.833 677) rotate(180)" fill="#69d2cd"/>
    <g id="Grupo_1204244" data-name="Grupo 1204244" transform="translate(-421.167 1658.833) rotate(-90)">
      <rect id="Rectángulo_455272" data-name="Rectángulo 455272" width="18" height="18" rx="3" transform="translate(1317.833 620)" fill="#b9f0e8"/>
      <rect id="Rectángulo_455273" data-name="Rectángulo 455273" width="18" height="18" rx="3" transform="translate(1347.833 620)" fill="#b9f0e8"/>
      <rect id="Rectángulo_455274" data-name="Rectángulo 455274" width="18" height="18" rx="3" transform="translate(1377.833 620)" fill="#b9f0e8"/>
    </g>
    <g id="Grupo_1204254" data-name="Grupo 1204254">
      <g id="Enmascarar_grupo_1119189" data-name="Enmascarar grupo 1119189" clip-path="url(#clip-path)">
        <path id="Polígono_20" data-name="Polígono 20" d="M361.415,55.5c15.613-25.423,52.558-25.423,68.171,0L753.579,583.067C769.947,609.719,750.77,644,719.494,644H71.506c-31.277,0-50.453-34.281-34.085-60.933Z" transform="translate(1882.833 698) rotate(180)" fill="#e3e8c0"/>
      </g>
      <g id="Enmascarar_grupo_1119188" data-name="Enmascarar grupo 1119188" clip-path="url(#clip-path)">
        <path id="Polígono_16" data-name="Polígono 16" d="M361.415,55.5c15.613-25.423,52.558-25.423,68.171,0L753.579,583.067C769.947,609.719,750.77,644,719.494,644H71.506c-31.277,0-50.453-34.281-34.085-60.933Z" transform="translate(1104.833 99)" fill="#b9f0e8"/>
        <g id="Polígono_18" data-name="Polígono 18" transform="translate(1073.833 -48)" fill="none">
          <path d="M451.919,55.469c15.614-25.414,52.548-25.414,68.162,0L934.558,730.06c16.375,26.652-2.8,60.94-34.081,60.94H71.523c-31.28,0-50.456-34.288-34.081-60.94Z" stroke="none"/>
          <path d="M 485.9998779296875 41.409423828125 C 480.1605834960938 41.409423828125 474.3963623046875 42.8505859375 469.3303527832031 45.5771484375 C 466.71142578125 46.98681640625 464.2836608886719 48.73516845703125 462.1147155761719 50.77386474609375 C 459.8490600585938 52.90350341796875 457.8519897460938 55.364013671875 456.178955078125 58.0870361328125 L 41.70233154296875 732.677734375 C 39.94891357421875 735.531494140625 38.6142578125 738.5621337890625 37.73529052734375 741.6851806640625 C 36.896484375 744.6654052734375 36.4676513671875 747.7445678710938 36.4603271484375 750.83740234375 C 36.44647216796875 756.8130493164062 38.00787353515625 762.7767944335938 40.97601318359375 768.0838623046875 C 43.9439697265625 773.3910522460938 48.2078857421875 777.8433837890625 53.30657958984375 780.9597778320312 C 55.9454345703125 782.5726928710938 58.79364013671875 783.8191528320312 61.77191162109375 784.6646728515625 C 64.8929443359375 785.5506591796875 68.17388916015625 786 71.5233154296875 786 L 900.4766845703125 786 C 903.8261108398438 786 907.10693359375 785.5506591796875 910.2281494140625 784.6646728515625 C 913.2063598632812 783.8191528320312 916.054443359375 782.5726928710938 918.6934204101562 780.9597778320312 C 923.7921142578125 777.8433837890625 928.0560302734375 773.3910522460938 931.0239868164062 768.0838623046875 C 933.9921264648438 762.7766723632812 935.5535278320312 756.8129272460938 935.5396728515625 750.8372802734375 C 935.5323486328125 747.7445678710938 935.1033935546875 744.6654052734375 934.2647094726562 741.6851806640625 C 933.3857421875 738.5621337890625 932.0510864257812 735.531494140625 930.2976684570312 732.677734375 L 515.8209228515625 58.0869140625 C 514.1478881835938 55.364013671875 512.1508178710938 52.90350341796875 509.8851623535156 50.77386474609375 C 507.7162475585938 48.73516845703125 505.2884826660156 46.98681640625 502.6695251464844 45.5771484375 C 497.603515625 42.8505859375 491.8391723632812 41.409423828125 485.9998779296875 41.409423828125 M 485.9999389648438 36.40936279296875 C 499.1369018554688 36.40936279296875 512.27392578125 42.76275634765625 520.0810546875 55.46954345703125 L 934.5577392578125 730.0602416992188 C 950.9328002929688 756.7117309570312 931.7568359375 791 900.4766845703125 791 L 71.5233154296875 791 C 40.2430419921875 791 21.06719970703125 756.7117309570312 37.4422607421875 730.0602416992188 L 451.9188232421875 55.46954345703125 C 459.7260131835938 42.76275634765625 472.8629760742188 36.40936279296875 485.9999389648438 36.40936279296875 Z" stroke="none" fill="#ffffeb"/>
        </g>
      </g>
      <rect id="Rectángulo_455244" data-name="Rectángulo 455244" width="734" height="559" transform="translate(730.833 118)" fill="rgba(255,255,255,0)"/>
      <g id="software-download-svgrepo-com" transform="translate(767.333 161.024)">
        <path id="Trazado_1261784" data-name="Trazado 1261784" d="M23.03,7.583a3.583,3.583,0,1,1,7.167,0V33.232l11.62-11.62,5.068,5.067L26.613,46.95,6.343,26.68l5.068-5.067L23.03,33.231Z" transform="translate(6.053)" fill="#f8f8c5"/>
        <path id="Trazado_1261785" data-name="Trazado 1261785" d="M4,14h7.167V28.333h43V14h7.167V28.333A7.166,7.166,0,0,1,54.166,35.5h-43A7.167,7.167,0,0,1,4,28.333Z" transform="translate(0 25.833)" fill="#f8f8c5"/>
      </g>
      <path id="code-file-svgrepo-com_1_" data-name="code-file-svgrepo-com (1)" d="M22.975,1.93A3.174,3.174,0,0,1,25.22,1H50.614a9.523,9.523,0,0,1,9.523,9.523V26.394a3.174,3.174,0,0,1-6.349,0V10.523a3.174,3.174,0,0,0-3.174-3.174H28.394V23.22a3.174,3.174,0,0,1-3.174,3.174H9.349V61.311a3.174,3.174,0,0,0,3.174,3.174h9.523a3.174,3.174,0,1,1,0,6.349H12.523A9.523,9.523,0,0,1,3,61.311V23.22a3.174,3.174,0,0,1,.93-2.245ZM13.838,20.046h8.208V11.838Zm39.021,16.8,12.7,12.7a3.174,3.174,0,0,1,0,4.489l-12.7,12.7a3.174,3.174,0,1,1-4.489-4.489L58.822,51.788,48.37,41.336a3.174,3.174,0,1,1,4.489-4.489Zm-12.7,4.489a3.174,3.174,0,1,0-4.489-4.489l-12.7,12.7a3.174,3.174,0,0,0,0,4.489l12.7,12.7a3.174,3.174,0,1,0,4.489-4.489L29.709,51.788Z" transform="translate(1263.333 183.666)" fill="#b5b999" fill-rule="evenodd"/>
      <g id="Grupo_1204243" data-name="Grupo 1204243" transform="translate(18 -9)">
        <rect id="Rectángulo_455272-2" data-name="Rectángulo 455272" width="18" height="18" rx="3" transform="translate(1317.833 620)" fill="#69d2cd"/>
        <rect id="Rectángulo_455273-2" data-name="Rectángulo 455273" width="18" height="18" rx="3" transform="translate(1347.833 620)" fill="#69d2cd"/>
        <rect id="Rectángulo_455274-2" data-name="Rectángulo 455274" width="18" height="18" rx="3" transform="translate(1377.833 620)" fill="#69d2cd"/>
      </g>
      <path id="java-script-svgrepo-com" d="M48.214,52.5a15.921,15.921,0,0,1-8.575-1.561,5.641,5.641,0,0,1-2.1-3.96.87.87,0,0,0-.888-.86c-1.241-.015-2.482-.012-3.723,0a.828.828,0,0,0-.907.73,9.168,9.168,0,0,0,2.952,7.231,15.647,15.647,0,0,0,8.735,3.286,31.6,31.6,0,0,0,9.93-.422A12.254,12.254,0,0,0,60.219,53.4a9.166,9.166,0,0,0,1.552-8.745,7.327,7.327,0,0,0-4.823-4.291C51.927,38.6,46.5,38.736,41.385,37.4c-.889-.28-1.974-.583-2.37-1.524a3.35,3.35,0,0,1,1.114-3.743,10.026,10.026,0,0,1,5.287-1.316A15.957,15.957,0,0,1,52.8,31.871a5.628,5.628,0,0,1,2.692,3.89.953.953,0,0,0,.892.924c1.232.025,2.465.007,3.7.008a.893.893,0,0,0,.97-.658A9.541,9.541,0,0,0,56.4,27.779a23.048,23.048,0,0,0-12.616-1.93h0a13.742,13.742,0,0,0-8.531,3.428,8.525,8.525,0,0,0-1.7,8.87,7.565,7.565,0,0,0,4.776,4.162c5,1.807,10.489,1.227,15.541,2.826.985.334,2.131.845,2.433,1.941a3.884,3.884,0,0,1-1.057,3.709A11.646,11.646,0,0,1,48.214,52.5ZM71.026,19.4Q56.37,11.109,41.708,2.836a6.576,6.576,0,0,0-6.419,0L6.078,19.33a6.047,6.047,0,0,0-3.153,5.264V57.815A6.087,6.087,0,0,0,6.2,63.127c2.8,1.523,5.515,3.2,8.363,4.621a12.011,12.011,0,0,0,10.734.3,8.34,8.34,0,0,0,3.9-7.531c.022-10.964,0-21.928.008-32.892a.862.862,0,0,0-.813-1c-1.244-.02-2.49-.012-3.735,0a.821.821,0,0,0-.894.838c-.017,10.893,0,21.79-.01,32.685a3.687,3.687,0,0,1-2.387,3.464,6.008,6.008,0,0,1-4.861-.651l-7.774-4.39a.93.93,0,0,1-.528-.922q0-16.441,0-32.88a1.015,1.015,0,0,1,.615-1.02q14.557-8.2,29.109-16.415a1.011,1.011,0,0,1,1.143,0q14.557,8.2,29.112,16.408a1.027,1.027,0,0,1,.612,1.025q0,16.438,0,32.879a.949.949,0,0,1-.521.934Q53.937,66.682,39.587,74.764c-.457.255-1,.664-1.533.356-2.505-1.418-4.98-2.891-7.477-4.323a.807.807,0,0,0-.9-.054,20.457,20.457,0,0,1-3.458,1.614c-.541.219-1.207.282-1.58.784a5.158,5.158,0,0,0,1.691,1.218q4.381,2.536,8.766,5.068a6.389,6.389,0,0,0,6.49.18Q56.192,71.37,70.8,63.126a6.1,6.1,0,0,0,3.276-5.311V24.594a6.035,6.035,0,0,0-3.049-5.2Z" transform="translate(1339.759 388.914)" fill="#69d2cd"/>
    </g>
  </g>
</svg>
