<svg xmlns="http://www.w3.org/2000/svg" xmlns:xlink="http://www.w3.org/1999/xlink" width="1600" height="220" viewBox="0 0 1600 220">
  <defs>
    <clipPath id="clip-path">
      <rect id="Rectángulo_455278" data-name="Rectángulo 455278" width="1600" height="220" fill="#69d2cd"/>
    </clipPath>
  </defs>
  <g id="Grupo_1204795" data-name="Grupo 1204795" transform="translate(116.203 -106)">
    <g id="Enmascarar_grupo_1119192" data-name="Enmascarar grupo 1119192" transform="translate(-116.203 106)" clip-path="url(#clip-path)">
      <rect id="Rectángulo_455279" data-name="Rectángulo 455279" width="1600" height="220" fill="#69d2cd"/>
      <g id="Grupo_1204244" data-name="Grupo 1204244" transform="translate(-533.167 1524.66) rotate(-90)">
        <rect id="Rectángulo_455272" data-name="Rectángulo 455272" width="18" height="18" rx="3" transform="translate(1317.833 620)" fill="#b9f0e8"/>
        <rect id="Rectángulo_455273" data-name="Rectángulo 455273" width="18" height="18" rx="3" transform="translate(1347.833 620)" fill="#b9f0e8"/>
        <rect id="Rectángulo_455274" data-name="Rectángulo 455274" width="18" height="18" rx="3" transform="translate(1377.833 620)" fill="#b9f0e8"/>
      </g>
      <path id="Trazado_1261798" data-name="Trazado 1261798" d="M252.372,19.073c14.813-25.431,49.876-25.431,64.689,0l246.7,423.543c15.524,26.652-2.672,60.927-32.345,60.927H38.013c-29.673,0-47.869-34.275-32.345-60.927Z" transform="translate(1749.517 447.37) rotate(180)" fill="#e3e8c0"/>
      <g id="software-download-svgrepo-com" transform="translate(1266.508 39.492)">
        <path id="Trazado_1261784" data-name="Trazado 1261784" d="M19,6.865a2.722,2.722,0,1,1,5.437,0V27.371l8.815-9.29L37.1,22.132,21.72,38.339,6.343,22.132l3.844-4.051L19,27.37Z" transform="translate(0.026 -4)" fill="#ffffeb"/>
        <path id="Trazado_1261785" data-name="Trazado 1261785" d="M4,14H9.437V25.459H42.056V14h5.437V25.459a5.589,5.589,0,0,1-5.437,5.73H9.437A5.589,5.589,0,0,1,4,25.459Z" transform="translate(-4 14.649)" fill="#ffffeb"/>
      </g>
      <path id="java-script-svgrepo-com" d="M58.052,66.79a18.521,18.521,0,0,1-10.437-2,7.359,7.359,0,0,1-2.555-5.08,1.145,1.145,0,0,0-.322-.79,1.03,1.03,0,0,0-.759-.314c-1.511-.019-3.021-.015-4.532,0a1.023,1.023,0,0,0-1.1.937,12.088,12.088,0,0,0,3.593,9.276A18.478,18.478,0,0,0,52.569,73.03a36.535,36.535,0,0,0,12.087-.541,14.7,14.7,0,0,0,8.008-4.548,12.264,12.264,0,0,0,1.89-11.219,9.094,9.094,0,0,0-5.871-5.5c-6.112-2.26-12.714-2.089-18.944-3.807-1.082-.359-2.4-.748-2.885-1.955a4.439,4.439,0,0,1,1.356-4.8,11.714,11.714,0,0,1,6.436-1.689,18.518,18.518,0,0,1,8.991,1.356,7.23,7.23,0,0,1,3.277,4.99A1.2,1.2,0,0,0,68,46.5c1.5.032,3,.009,4.5.011a1.091,1.091,0,0,0,1.18-.843,12.391,12.391,0,0,0-5.662-10.591,26.774,26.774,0,0,0-15.357-2.477h0a16.275,16.275,0,0,0-10.384,4.4A11.384,11.384,0,0,0,40.2,48.371a9.375,9.375,0,0,0,5.814,5.34c6.091,2.319,12.767,1.575,18.917,3.625,1.2.429,2.594,1.084,2.961,2.49a5.162,5.162,0,0,1-1.287,4.758A13.609,13.609,0,0,1,58.052,66.79ZM85.819,24.317Q67.98,13.685,50.133,3.073a7.648,7.648,0,0,0-7.813,0L6.763,24.233a7.826,7.826,0,0,0-3.837,6.753V73.6a7.865,7.865,0,0,0,3.985,6.815c3.4,1.953,6.713,4.105,10.179,5.929a13.954,13.954,0,0,0,13.066.378A10.875,10.875,0,0,0,34.9,77.064c.026-14.065,0-28.131.01-42.2A1.149,1.149,0,0,0,34.691,34a1.031,1.031,0,0,0-.766-.406c-1.515-.026-3.031-.015-4.546,0a.968.968,0,0,0-.772.28,1.081,1.081,0,0,0-.316.794c-.02,13.975,0,27.954-.012,41.93a4.73,4.73,0,0,1-2.906,4.444,6.991,6.991,0,0,1-5.917-.835L9.993,74.568a1.2,1.2,0,0,1-.642-1.183q0-21.091,0-42.181A1.311,1.311,0,0,1,10.1,29.9Q27.819,19.377,45.532,8.837a1.179,1.179,0,0,1,1.392,0q17.719,10.521,35.435,21.05A1.328,1.328,0,0,1,83.1,31.2q0,21.088,0,42.179a1.231,1.231,0,0,1-.634,1.2q-17.448,10.4-34.914,20.766c-.556.327-1.215.852-1.865.456-3.05-1.819-6.062-3.709-9.1-5.546a.942.942,0,0,0-1.1-.069,24.336,24.336,0,0,1-4.209,2.07c-.659.281-1.469.361-1.923,1.005a6.3,6.3,0,0,0,2.058,1.562q5.332,3.254,10.67,6.5a7.436,7.436,0,0,0,7.9.231q17.78-10.566,35.559-21.142A7.883,7.883,0,0,0,89.529,73.6V30.985a7.822,7.822,0,0,0-3.711-6.668Z" transform="translate(1346.539 83.33)" fill="#aeae8a"/>
      <g id="code-svgrepo-com" transform="translate(1468.623 29.827)">
        <path id="Trazado_1261774" data-name="Trazado 1261774" d="M11.976.859,6.01,44.871l5.906.889L17.882,1.748Z" transform="translate(11.917 -0.859)" fill="#9fa387"/>
        <path id="Trazado_1261775" data-name="Trazado 1261775" d="M15.3,26.506,11.086,22.06,17.307,15.5,11.086,8.946,15.3,4.5l10.44,11Z" transform="translate(21.982 6.948)" fill="#9fa387"/>
        <path id="Trazado_1261776" data-name="Trazado 1261776" d="M8.437,15.5l6.222,6.557L10.44,26.506,0,15.5l10.44-11,4.218,4.446Z" transform="translate(0 6.948)" fill="#9fa387"/>
      </g>
      <path id="code-file-svgrepo-com_1_" data-name="code-file-svgrepo-com (1)" d="M24.068,2.033A3.263,3.263,0,0,1,26.435,1H53.218A10.325,10.325,0,0,1,63.261,11.585V29.227a3.352,3.352,0,1,1-6.7,0V11.585a3.442,3.442,0,0,0-3.348-3.528H29.783V25.7a3.442,3.442,0,0,1-3.348,3.528H9.7V68.04a3.442,3.442,0,0,0,3.348,3.528H23.087a3.533,3.533,0,0,1,0,7.057H13.044A10.325,10.325,0,0,1,3,68.04V25.7A3.627,3.627,0,0,1,3.981,23.2ZM14.43,22.17h8.657V13.047ZM55.585,40.846,68.976,54.96a3.664,3.664,0,0,1,0,4.99L55.585,74.063a3.228,3.228,0,0,1-4.735,0,3.664,3.664,0,0,1,0-4.99L61.875,57.455,50.851,45.836a3.664,3.664,0,0,1,0-4.99A3.228,3.228,0,0,1,55.585,40.846Zm-13.391,4.99a3.665,3.665,0,0,0,0-4.99,3.228,3.228,0,0,0-4.735,0L24.068,54.96a3.664,3.664,0,0,0,0,4.99L37.459,74.063a3.228,3.228,0,0,0,4.735,0,3.665,3.665,0,0,0,0-4.99L31.169,57.455Z" transform="translate(1352.833 -16.214)" fill="#f8f8c5" fill-rule="evenodd"/>
      <path id="Polígono_16" data-name="Polígono 16" d="M297.411,55.53c15.612-25.431,52.566-25.431,68.178,0L625.6,479.073C641.959,505.725,622.782,540,591.509,540H71.491c-31.273,0-50.45-34.275-34.089-60.927Z" transform="translate(1345.833 -113.173)" fill="#b9f0e8"/>
      <g id="Polígono_18" data-name="Polígono 18" transform="translate(1318.833 -236.173)" fill="none">
        <path d="M373.422,55.444c15.616-25.406,52.54-25.406,68.156,0l335.963,546.61C793.922,628.706,774.746,663,743.463,663H71.537c-31.283,0-50.459-34.294-34.078-60.945Z" stroke="none"/>
        <path d="M 407.5 41.38958740234375 C 401.6617126464844 41.38958740234375 395.898193359375 42.83038330078125 390.8327026367188 45.55633544921875 C 388.2139892578125 46.96551513671875 385.7864990234375 48.71343994140625 383.6177062988281 50.7515869140625 C 381.3522033691406 52.8804931640625 379.3551025390625 55.34033203125 377.681884765625 58.0626220703125 L 41.718505859375 604.6729125976562 C 39.9644775390625 607.5267333984375 38.62921142578125 610.5573120117188 37.74969482421875 613.6806030273438 C 36.9105224609375 616.660888671875 36.481201171875 619.7402954101562 36.47357177734375 622.8331909179688 C 36.458984375 628.809326171875 38.02001953125 634.773681640625 40.9879150390625 640.08154296875 C 43.955810546875 645.3892211914062 48.2196044921875 649.8422241210938 53.318603515625 652.958984375 C 55.95758056640625 654.5722045898438 58.805908203125 655.8189086914062 61.784423828125 656.6644897460938 C 64.90570068359375 657.5507202148438 68.1868896484375 658 71.53662109375 658 L 743.46337890625 658 C 746.8131103515625 658 750.0942993164062 657.5507202148438 753.215576171875 656.6644897460938 C 756.194091796875 655.8189086914062 759.0424194335938 654.5722045898438 761.681396484375 652.958984375 C 766.7803955078125 649.8422241210938 771.044189453125 645.3892211914062 774.0120849609375 640.08154296875 C 776.97998046875 634.773681640625 778.541015625 628.809326171875 778.5264282226562 622.8331909179688 C 778.518798828125 619.7402954101562 778.0894775390625 616.660888671875 777.2503051757812 613.6806030273438 C 776.3707885742188 610.5573120117188 775.0355224609375 607.5267333984375 773.281494140625 604.6729125976562 L 437.318115234375 58.0626220703125 C 435.6448974609375 55.34033203125 433.6477966308594 52.8804931640625 431.3822937011719 50.7515869140625 C 429.2134094238281 48.71343994140625 426.785888671875 46.96551513671875 424.1672058105469 45.55633544921875 C 419.101806640625 42.83038330078125 413.3382873535156 41.38958740234375 407.5 41.38958740234375 M 407.5 36.38958740234375 C 420.635009765625 36.38958740234375 433.7700500488281 42.7412109375 441.5777893066406 55.44439697265625 L 777.5411987304688 602.0546875 C 793.9219970703125 628.7062377929688 774.7463989257812 663 743.46337890625 663 L 71.53662109375 663 C 40.25360107421875 663 21.0780029296875 628.7062377929688 37.45880126953125 602.0546875 L 373.4222106933594 55.44439697265625 C 381.2299499511719 42.7412109375 394.364990234375 36.38958740234375 407.5 36.38958740234375 Z" stroke="none" fill="#ffffeb"/>
      </g>
      <path id="code-file-svgrepo-com_1_2" data-name="code-file-svgrepo-com (1)" d="M21.14,1.844A2.883,2.883,0,0,1,23.178,1H46.239a8.648,8.648,0,0,1,8.648,8.648V24.061a2.883,2.883,0,0,1-5.765,0V9.648a2.883,2.883,0,0,0-2.883-2.883H26.061V21.178a2.883,2.883,0,0,1-2.883,2.883H8.765V55.77a2.883,2.883,0,0,0,2.883,2.883H20.3a2.883,2.883,0,1,1,0,5.765H11.648A8.648,8.648,0,0,1,3,55.77V21.178a2.883,2.883,0,0,1,.844-2.038ZM12.842,18.3H20.3V10.842ZM48.278,33.553l11.53,11.53a2.883,2.883,0,0,1,0,4.077l-11.53,11.53A2.883,2.883,0,0,1,44.2,56.614l9.492-9.492L44.2,37.63a2.883,2.883,0,0,1,4.077-4.077ZM36.747,37.63a2.883,2.883,0,1,0-4.077-4.077L21.14,45.084a2.883,2.883,0,0,0,0,4.077l11.531,11.53a2.883,2.883,0,1,0,4.077-4.077l-9.492-9.492Z" transform="translate(1570.514 97.909)" fill="#84c48c" fill-rule="evenodd"/>
      <g id="internet-svgrepo-com" transform="translate(1516.349 174.897)">
        <g id="Grupo_1204248" data-name="Grupo 1204248" transform="translate(0 6)">
          <g id="Grupo_1204247" data-name="Grupo 1204247">
            <path id="Trazado_1261787" data-name="Trazado 1261787" d="M61.026,36.513A30.513,30.513,0,1,0,30.513,67.026,30.547,30.547,0,0,0,61.026,36.513ZM43.272,59.322c3.751-5.39,6.086-13.164,6.086-21.975,0-.282-.021-.554-.026-.834h7.335A26.161,26.161,0,0,1,43.272,59.322Zm13-27.168H49.063c-.888-8.224-3.838-15.2-8.033-19.569A26.206,26.206,0,0,1,56.274,32.154Zm-23.581-19.8c5.88,1.632,10.72,9.689,11.981,19.8H32.693Zm0,24.154H44.974c.005.279.025.553.025.834,0,12.43-5.447,23.082-12.307,24.987Zm-12.7-23.928c-4.194,4.373-7.145,11.345-8.033,19.569H4.752A26.207,26.207,0,0,1,19.994,12.585ZM4.359,36.513h7.333c0,.28-.026.553-.026.834,0,8.81,2.335,16.584,6.086,21.974A26.161,26.161,0,0,1,4.359,36.513ZM28.334,62.335c-6.861-1.9-12.309-12.557-12.309-24.987,0-.282.02-.556.025-.835H28.334Zm0-30.181H16.35c1.261-10.107,6.1-18.164,11.984-19.8Z" transform="translate(0 -6)" fill="#69d2cd"/>
            <path id="Trazado_1261788" data-name="Trazado 1261788" d="M176.871,184.423l-4.2-10.51V148.18a2.178,2.178,0,0,0-2.18-2.18H122.539a2.178,2.178,0,0,0-2.18,2.18v25.734l-4.2,10.509a2.18,2.18,0,0,0,2.024,2.989h56.667a2.18,2.18,0,0,0,2.024-2.988Zm-52.153-34.064h43.59v21.8h-43.59ZM121.4,183.052l2.616-6.539h45l2.616,6.539Z" transform="translate(-52.794 -69.717)" fill="#69d2cd"/>
            <path id="Trazado_1261789" data-name="Trazado 1261789" d="M74.547,154.629a2.179,2.179,0,1,0-3.082,3.082l2.444,2.443H51.21V141.815l2.443,2.443a2.179,2.179,0,1,0,3.082-3.082l-5.659-5.659a2.138,2.138,0,0,0-4.092,0l-5.659,5.659a2.179,2.179,0,0,0,3.082,3.082l2.444-2.443v20.518a2.178,2.178,0,0,0,2.18,2.18H73.908l-2.443,2.443a2.179,2.179,0,1,0,3.082,3.082l6.164-6.164a2.179,2.179,0,0,0,0-3.082Z" transform="translate(-18.518 -64.255)" fill="#69d2cd"/>
          </g>
        </g>
      </g>
      <g id="internet-svgrepo-com-2" data-name="internet-svgrepo-com" transform="translate(975 -46.173)">
        <g id="Grupo_1204248-2" data-name="Grupo 1204248" transform="translate(0 6)">
          <g id="Grupo_1204247-2" data-name="Grupo 1204247">
            <path id="Trazado_1261787-2" data-name="Trazado 1261787" d="M88.912,50.456A44.456,44.456,0,1,0,44.456,94.912,44.506,44.506,0,0,0,88.912,50.456ZM63.045,83.688c5.465-7.853,8.867-19.18,8.867-32.016,0-.411-.031-.807-.038-1.215H82.561A38.115,38.115,0,0,1,63.045,83.688ZM81.988,44.105H71.482c-1.293-11.982-5.592-22.141-11.7-28.511A38.18,38.18,0,0,1,81.988,44.105ZM47.632,15.264C56.2,17.643,63.25,29.381,65.088,44.105H47.632Zm0,35.192H65.525c.008.406.037.806.037,1.215,0,18.11-7.935,33.629-17.93,36.4Zm-18.5-34.862c-6.111,6.372-10.41,16.53-11.7,28.511H6.924A38.183,38.183,0,0,1,29.131,15.595ZM6.351,50.456H17.035c-.007.408-.038.8-.038,1.215,0,12.835,3.4,24.162,8.867,32.015A38.115,38.115,0,0,1,6.351,50.456Zm34.93,37.621c-10-2.775-17.933-18.3-17.933-36.4,0-.41.029-.81.037-1.216h17.9Zm0-43.972H23.821c1.838-14.725,8.89-26.463,17.459-28.842Z" transform="translate(0 -6)" fill="#ffffeb"/>
            <path id="Trazado_1261788-2" data-name="Trazado 1261788" d="M204.686,201.98l-6.125-15.312V149.175A3.174,3.174,0,0,0,195.386,146h-69.86a3.174,3.174,0,0,0-3.175,3.175v37.492l-6.125,15.311a3.176,3.176,0,0,0,2.949,4.354h82.561a3.176,3.176,0,0,0,2.949-4.354ZM128.7,152.351h63.509v31.754H128.7Zm-4.838,47.632,3.811-9.526h65.562l3.811,9.526Z" transform="translate(-23.912 -34.86)" fill="#ffffeb"/>
            <path id="Trazado_1261789-2" data-name="Trazado 1261789" d="M90.018,164.055a3.175,3.175,0,0,0-4.49,4.49l3.56,3.56H56.019V145.386l3.56,3.56a3.175,3.175,0,0,0,4.49-4.49l-8.244-8.244a3.115,3.115,0,0,0-5.962,0l-8.245,8.245a3.175,3.175,0,0,0,4.49,4.49l3.56-3.56v29.894a3.174,3.174,0,0,0,3.175,3.175H89.088l-3.56,3.56a3.175,3.175,0,1,0,4.49,4.49l8.98-8.98a3.175,3.175,0,0,0,0-4.49Z" transform="translate(-8.387 -32.386)" fill="#ffffeb"/>
          </g>
        </g>
      </g>
      <g id="code-svgrepo-com-2" data-name="code-svgrepo-com" transform="translate(879.234 27.873)">
        <path id="Trazado_1261774-2" data-name="Trazado 1261774" d="M15.606.859l-9.6,70.8,9.5,1.43,9.6-70.8Z" transform="translate(22.827 -0.859)" fill="#b9f0e8"/>
        <path id="Trazado_1261775-2" data-name="Trazado 1261775" d="M17.871,39.9l-6.785-7.151L21.094,22.2,11.086,11.652,17.871,4.5,34.665,22.2Z" transform="translate(42.105 13.914)" fill="#b9f0e8"/>
        <path id="Trazado_1261776-2" data-name="Trazado 1261776" d="M13.571,22.2,23.579,32.747,16.793,39.9,0,22.2,16.793,4.5l6.785,7.152Z" transform="translate(0 13.914)" fill="#b9f0e8"/>
      </g>
      <g id="software-svgrepo-com" transform="translate(-42.785 -103.173)">
        <g id="Grupo_1204242" data-name="Grupo 1204242">
          <path id="Trazado_1261782" data-name="Trazado 1261782" d="M207.272,0H3.513A3.319,3.319,0,0,0,0,3.513v161.6a3.319,3.319,0,0,0,3.513,3.513H17.565v38.644a3.319,3.319,0,0,0,3.513,3.513H189.707a3.319,3.319,0,0,0,3.513-3.513V168.628h14.052a3.319,3.319,0,0,0,3.513-3.513V3.513A3.319,3.319,0,0,0,207.272,0Zm-3.513,7.026V28.1H7.026V7.026ZM186.194,84.314H24.592V63.236h161.6ZM24.592,203.759V91.34h161.6V203.759ZM193.22,161.6V59.722a3.319,3.319,0,0,0-3.513-3.513H21.079a3.319,3.319,0,0,0-3.513,3.513V161.6H7.026V35.131H203.759V161.6Z" fill="#b9f0e8"/>
          <rect id="Rectángulo_455245" data-name="Rectángulo 455245" width="13.373" height="7.642" transform="translate(14.009 13.373)" fill="#b9f0e8"/>
          <rect id="Rectángulo_455246" data-name="Rectángulo 455246" width="13.373" height="7.642" transform="translate(35.024 13.373)" fill="#b9f0e8"/>
          <rect id="Rectángulo_455247" data-name="Rectángulo 455247" width="15.284" height="5.731" transform="translate(31.203 70.686)" fill="#b9f0e8"/>
          <rect id="Rectángulo_455248" data-name="Rectángulo 455248" width="15.284" height="5.731" transform="translate(52.218 70.686)" fill="#b9f0e8"/>
          <rect id="Rectángulo_455249" data-name="Rectángulo 455249" width="7.642" height="7.642" transform="translate(189.77 13.373)" fill="#b9f0e8"/>
          <rect id="Rectángulo_455250" data-name="Rectángulo 455250" width="5.731" height="7.642" transform="translate(176.397 13.373)" fill="#b9f0e8"/>
          <rect id="Rectángulo_455251" data-name="Rectángulo 455251" width="5.731" height="5.731" transform="translate(172.576 70.686)" fill="#b9f0e8"/>
          <rect id="Rectángulo_455252" data-name="Rectángulo 455252" width="7.642" height="5.731" transform="translate(157.293 70.686)" fill="#b9f0e8"/>
          <path id="Trazado_1261783" data-name="Trazado 1261783" d="M13.513,92.236H69.722a3.319,3.319,0,0,0,3.513-3.513V32.513A3.319,3.319,0,0,0,69.722,29H13.513A3.319,3.319,0,0,0,10,32.513V88.722A3.319,3.319,0,0,0,13.513,92.236Zm3.513-28.1H38.1V85.209H17.026Zm28.1,21.079V64.131H66.209V85.209ZM66.209,57.1H45.131V36.026H66.209ZM38.1,36.026V57.1H17.026V36.026Z" transform="translate(25.131 72.879)" fill="#b9f0e8"/>
          <rect id="Rectángulo_455253" data-name="Rectángulo 455253" width="13.373" height="7.642" transform="translate(109.532 101.254)" fill="#b9f0e8"/>
          <rect id="Rectángulo_455254" data-name="Rectángulo 455254" width="5.731" height="5.731" transform="translate(109.532 116.537)" fill="#b9f0e8"/>
          <rect id="Rectángulo_455255" data-name="Rectángulo 455255" width="7.642" height="5.731" transform="translate(122.905 116.537)" fill="#b9f0e8"/>
          <rect id="Rectángulo_455256" data-name="Rectángulo 455256" width="7.642" height="5.731" transform="translate(136.278 116.537)" fill="#b9f0e8"/>
          <rect id="Rectángulo_455257" data-name="Rectángulo 455257" width="5.731" height="5.731" transform="translate(151.561 116.537)" fill="#b9f0e8"/>
          <rect id="Rectángulo_455258" data-name="Rectángulo 455258" width="7.642" height="5.731" transform="translate(164.934 116.537)" fill="#b9f0e8"/>
          <rect id="Rectángulo_455259" data-name="Rectángulo 455259" width="13.373" height="7.642" transform="translate(134.367 101.254)" fill="#b9f0e8"/>
          <rect id="Rectángulo_455260" data-name="Rectángulo 455260" width="15.284" height="7.642" transform="translate(157.293 101.254)" fill="#b9f0e8"/>
          <rect id="Rectángulo_455261" data-name="Rectángulo 455261" width="63.045" height="7.642" transform="translate(109.532 129.91)" fill="#b9f0e8"/>
          <rect id="Rectángulo_455262" data-name="Rectángulo 455262" width="63.045" height="7.642" transform="translate(109.532 143.283)" fill="#b9f0e8"/>
          <rect id="Rectángulo_455263" data-name="Rectángulo 455263" width="63.045" height="5.731" transform="translate(109.532 158.567)" fill="#b9f0e8"/>
          <rect id="Rectángulo_455264" data-name="Rectángulo 455264" width="7.642" height="5.731" transform="translate(35.024 179.582)" fill="#b9f0e8"/>
          <rect id="Rectángulo_455265" data-name="Rectángulo 455265" width="7.642" height="5.731" transform="translate(48.397 179.582)" fill="#b9f0e8"/>
          <rect id="Rectángulo_455266" data-name="Rectángulo 455266" width="5.731" height="5.731" transform="translate(63.681 179.582)" fill="#b9f0e8"/>
          <rect id="Rectángulo_455267" data-name="Rectángulo 455267" width="95.522" height="5.731" transform="translate(77.054 179.582)" fill="#b9f0e8"/>
        </g>
      </g>
      <g id="Grupo_1204243" data-name="Grupo 1204243" transform="translate(-230 -596.173)">
        <rect id="Rectángulo_455272-2" data-name="Rectángulo 455272" width="18" height="18" rx="3" transform="translate(1317.833 620)" fill="#a6f6af"/>
        <rect id="Rectángulo_455273-2" data-name="Rectángulo 455273" width="18" height="18" rx="3" transform="translate(1347.833 620)" fill="#a6f6af"/>
        <rect id="Rectángulo_455274-2" data-name="Rectángulo 455274" width="18" height="18" rx="3" transform="translate(1377.833 620)" fill="#a6f6af"/>
      </g>
    </g>
  </g>
</svg>
